<?xml version="1.0" encoding="utf-8"?>
<!-- Generator: Adobe Illustrator 27.5.0, SVG Export Plug-In . SVG Version: 6.00 Build 0)  -->
<svg version="1.1" id="Layer_1" xmlns="http://www.w3.org/2000/svg" xmlns:xlink="http://www.w3.org/1999/xlink" x="0px" y="0px"
	 viewBox="0 0 900 900" style="enable-background:new 0 0 900 900;display:none;" xml:space="preserve">
<path style="display:inline;opacity:0.5;fill:#8271A8;" d="M495.508,106.275h-37.516c0,0-0.011-0.011-0.021-0.011
	s-0.01,0.011-0.022,0.011h-0.472c0.043,0,0.096,0,0.139,0.011c0.043,0,0.076,0,0.107,0.01c-3.264,0.236-5.917,5.143-5.96,11.178
	c-0.032,6.055,2.556,10.973,5.831,11.177c-0.086,0.011-0.182,0.033-0.268,0.033h37.934"/>
<g style="display:inline;">
	<path style="fill:#FF7E36;" d="M635.508,792.024c5.905,0,10.737-4.832,10.737-10.737v-29.269c0-5.905-4.832-10.737-10.737-10.737
		h-5.448c-5.905,0-10.737,4.832-10.737,10.737v29.269c0,5.905,4.832,10.737,10.737,10.737H635.508z"/>
</g>
<g style="display:inline;">
	<g>
		<g style="opacity:0.7;">
			<path style="fill:#8271A8;" d="M879.78,835.8c0,2.663-2.416,4.853-5.369,4.853H563.42c-2.759,0-5.047-1.911-5.336-4.327
				c-0.022-0.172-0.032-0.344-0.032-0.526c0-0.322,0.032-0.644,0.107-0.956c-0.011-0.01-0.011-0.01,0-0.021
				c0.504-2.211,2.673-3.886,5.261-3.886h310.991C877.364,830.936,879.78,833.126,879.78,835.8z"/>
		</g>
	</g>
</g>
<g style="display:inline;">
	<g>
		<path style="fill:#9DB9C4;" d="M880.24,811.323c-0.032-1.224-0.236-4.037-0.837-6.818c-1.332-6.195-3.64-9.599-5.337-11.36
			c-2.48-2.577-4.928-2.931-6.174-2.91c-0.913,0.01-1.965,0.128-3.425,0.837c-0.505,0.247-1.052,0.601-1.579,1.02
			c-0.289,0.215-0.569,0.461-0.837,0.719c-0.182,0.172-0.354,0.343-0.515,0.526c-0.709,0.783-2.867,3.156-4.467,8.536
			c-0.29,0.966-0.547,1.997-0.751,3.06c-0.236,1.149-0.236,1.149-0.515,3.286c-0.118,0.891-0.129,0.988-0.258,3.49
			c-0.022,0.537-0.01,1.256-0.022,1.803c0.065,2.47,0.108,2.888,0.322,4.918c0,0.043,0.01,0.129,0.021,0.237
			c0.086,0.59,0.29,1.975,0.537,3.082c0.913,4.133,2.105,6.571,2.577,7.441c0.526,0.945,1.514,2.749,3.082,4.252
			c0.257,0.247,0.526,0.494,0.826,0.719c0.011,0.011,0.033,0.021,0.043,0.033c1.6,1.224,3.168,1.804,4.961,1.826
			c1.987,0.021,3.511-0.87,4.016-1.16c1.127-0.655,2.394-1.858,3.318-3.114c0.848-1.17,1.16-1.739,1.911-3.2
			c0.365-0.708,0.676-1.535,1.116-2.673c0.494-1.332,1.203-3.94,1.525-6.174C880.347,815.724,880.305,813.696,880.24,811.323z
			 M866.497,834.214c-0.43,0.01-0.859-0.021-1.278-0.107c-0.848-0.172-1.664-0.547-2.437-1.106
			c-3.232-2.287-5.745-7.644-6.647-14.334c-0.225-1.654-0.354-3.383-0.365-5.176c-0.086-9.298,2.856-17.297,7.012-20.229
			c0.773-0.558,1.578-0.934,2.426-1.106c0.301-0.065,0.612-0.107,0.924-0.118c5.82-0.204,10.619,9.073,10.726,20.723
			c0.021,2.051-0.107,4.026-0.376,5.906C875.279,827.482,871.285,834.042,866.497,834.214z"/>
	</g>
	<g>
		<path style="fill:#E1FBFF;" d="M866.47,834.158c-0.062,0.002-0.125,0.003-0.187,0.003h-1.858c0.062,0,0.125-0.001,0.187-0.003
			c5.808-0.203,10.435-9.784,10.333-21.401c-0.1-11.492-4.79-20.67-10.514-20.67h1.858c0.632,0,1.251,0.112,1.853,0.326
			c0.028,0.01,0.055,0.02,0.083,0.03c0.666,0.249,1.311,0.623,1.928,1.111c0.655,0.518,1.277,1.164,1.86,1.923
			c0.552,0.718,1.068,1.536,1.542,2.443c0.985,1.884,1.788,4.149,2.349,6.678c0.295,1.35,0.482,2.488,0.647,3.926
			c0.152,1.365,0.238,2.78,0.251,4.232c0.063,7.261-1.72,13.726-4.485,17.604c-0.597,0.827-1.11,1.406-1.769,2.001
			C869.3,833.47,867.922,834.107,866.47,834.158z M868.581,833.658l-0.117,0.051l-0.122,0.05l-0.126,0.049l-0.13,0.046l-0.133,0.044
			l-0.135,0.041l-0.137,0.038l-0.138,0.035l-0.139,0.031l-0.139,0.028l-0.138,0.024l-0.137,0.02l-0.135,0.016l-0.132,0.013
			l-0.129,0.009l-0.125,0.006l0.125-0.006l0.129-0.009l0.132-0.013l0.135-0.016l0.137-0.02l0.138-0.024l0.139-0.028l0.139-0.031
			l0.138-0.035l0.137-0.038l0.135-0.041l0.133-0.044l0.13-0.046l0.126-0.049l0.122-0.05L868.581,833.658"/>
	</g>
	<g>
		<path style="fill:#E1FBFF;" d="M874.947,812.761c0.021,2.051-0.108,4.026-0.376,5.906c-1.149,8.418-4.843,14.764-9.352,15.44
			c-0.204,0.033-0.408,0.043-0.612,0.053h-5.089c0.88-0.032,1.729-0.279,2.545-0.719c0.246-0.118,0.483-0.268,0.719-0.44
			c3.264-2.265,5.787-7.644,6.7-14.334c0.258-1.879,0.386-3.866,0.365-5.906c-0.076-9.073-3.017-16.696-7.065-19.499
			c-0.236-0.172-0.483-0.322-0.73-0.451c-0.87-0.472-1.783-0.719-2.716-0.719h5.1c0.257,0,0.515,0.021,0.773,0.065
			C870.577,792.93,874.85,801.777,874.947,812.761z"/>
	</g>
	<g>
		<path style="fill:#FF7E36;" d="M869.847,812.761c0.021,2.04-0.107,4.026-0.365,5.906c-0.913,6.689-3.436,12.068-6.7,14.334
			c-0.236,0.172-0.473,0.322-0.719,0.44c-0.816,0.44-1.665,0.687-2.545,0.719h-29.313c4.778-0.171,8.773-6.7,9.964-15.493
			c0.268-1.879,0.397-3.854,0.376-5.906c-0.107-11.499-4.789-20.669-10.512-20.669h29.302c0.934,0,1.846,0.247,2.716,0.719
			c0.247,0.129,0.494,0.279,0.73,0.451C866.83,796.065,869.771,803.688,869.847,812.761z"/>
	</g>
	<g>
		<path style="fill:#E1FBFF;" d="M840.545,812.761c0.021,2.051-0.107,4.026-0.376,5.906c-1.192,8.794-5.186,15.322-9.964,15.493
			h-6.378c4.778-0.171,8.762-6.689,9.964-15.472c0.257-1.879,0.397-3.876,0.375-5.927c-0.107-11.499-4.789-20.669-10.512-20.669
			h6.378C835.756,792.092,840.438,801.262,840.545,812.761z"/>
	</g>
	<g>
		<path style="fill:#9DB9C4;" d="M833.63,804.333c-0.826-3.812-1.739-5.745-2.48-7.302c-0.719-1.525-2.019-3.414-3.082-4.477
			c-0.14-0.14-0.311-0.3-0.483-0.461c-0.257-0.247-0.537-0.494-0.794-0.687c-0.816-0.623-1.332-0.913-1.622-1.052
			c-0.719-0.333-1.117-0.515-1.889-0.709c-0.956-0.236-1.74-0.247-1.955-0.247c-1.02,0.022-2.179,0.14-3.79,0.923
			c-1.568,0.763-2.781,2.04-3.178,2.459c-1.095,1.149-3.146,3.823-4.66,8.869c-0.203,0.655-0.504,1.74-0.773,3.125
			c-0.236,1.17-0.236,1.17-0.526,3.361c-0.118,0.902-0.139,1.203-0.257,3.543c-0.032,0.548-0.021,1.289-0.021,1.836
			c0.032,1.353,0.065,2.749,0.258,4.478c0.021,0.171,0.043,0.354,0.064,0.537c0.172,1.32,0.344,2.319,0.58,3.393
			c0.107,0.494,0.225,0.999,0.354,1.557c0.322,1.299,0.977,3.114,1.02,3.232c0.848,2.104,1.052,2.48,1.868,3.93
			c0.268,0.462,0.666,1.063,0.988,1.493c0.375,0.483,0.902,1.106,1.31,1.557c0.172,0.193,0.816,0.859,1.954,1.643
			c0.988,0.676,2.62,1.493,4.8,1.514c0.988,0.011,2.512-0.171,4.219-1.149c0.022-0.011,0.032-0.021,0.054-0.043
			c0.322-0.182,0.655-0.397,0.988-0.644c0.021-0.032,0.043-0.043,0.075-0.064c0.311-0.226,0.623-0.494,0.945-0.784
			c0.569-0.526,1.138-1.17,1.707-1.922c1.782-2.383,2.931-5.207,3.661-7.709c0.547-1.836,0.87-3.511,1.052-4.714
			c0.065-0.386,0.118-0.773,0.161-1.149C834.994,812.17,834.199,806.952,833.63,804.333z M819.178,834.16
			c-4.413,0.151-8.235-5.143-9.867-12.787c-0.236-1.117-0.429-2.276-0.558-3.49c-0.171-1.407-0.268-2.878-0.279-4.392
			c-0.096-11.617,4.531-21.195,10.34-21.399c5.809-0.204,10.598,9.051,10.694,20.669c0.011,1.149-0.022,2.276-0.108,3.382
			c-0.021,0.343-0.053,0.687-0.085,1.031C828.38,826.709,824.235,833.989,819.178,834.16z"/>
	</g>
	<path style="fill:#BAA8A2;" d="M879.779,819.698c-0.322,2.233-1.031,4.842-1.525,6.174c-0.44,1.138-0.751,1.965-1.116,2.673
		c-0.752,1.461-1.063,2.029-1.911,3.2c-0.923,1.256-2.19,2.459-3.318,3.114c-0.505,0.289-2.03,1.181-4.016,1.16
		c-1.793-0.022-3.361-0.602-4.961-1.826c-0.01-0.011-0.032-0.021-0.043-0.033h-35.293c-2.491,2.33-4.907,2.706-6.281,2.684
		c-2.18-0.021-3.812-0.837-4.8-1.514c-1.138-0.784-1.782-1.45-1.954-1.643c-0.408-0.451-0.934-1.074-1.31-1.557
		c-0.322-0.43-0.72-1.031-0.988-1.493c-0.816-1.45-1.02-1.826-1.868-3.93c-0.043-0.118-0.698-1.932-1.02-3.232
		c-0.129-0.558-0.247-1.063-0.354-1.557l0.29-0.547c1.632,7.644,5.454,12.938,9.867,12.787c5.24-0.182,9.502-7.977,10.222-18.017
		c0.076,0.333,0.119,0.687,0.119,1.052c0,2.319,3.629,1.632,4.273,1.493c0.064-0.011,0.096-0.021,0.096-0.021h40.683
		c1.213,0,1.911,0,1.911,0S878.694,819.912,879.779,819.698z"/>
	<g>
		<path style="fill:#4B4B5E;stroke:#F23D3D;stroke-width:3.2211;stroke-miterlimit:10;" d="M829.086,812.776
			c0.011,0.783-0.01,1.567-0.051,2.329c-0.485,10.07-4.68,18.028-9.864,18.213c-5.298,0.186-9.719-7.833-10.225-18.213
			c-0.031-0.536-0.051-1.082-0.051-1.629c-0.093-11.152,4.349-20.346,9.926-20.542C824.396,792.739,828.993,801.623,829.086,812.776
			z"/>
	</g>
</g>
<g style="display:inline;">
	<path style="fill:#F23D3D;" d="M182.137,835.747c0-3.543-2.899-6.442-6.442-6.442h-33.003c-3.543,0-6.442,2.899-6.442,6.442v2.244
		c0,3.543,2.899,6.442,6.442,6.442h33.003c3.543,0,6.442-2.899,6.442-6.442V835.747z"/>
</g>
<g style="display:inline;">
	<path style="fill:#FFE133;" d="M401.316,830.333c0-3.543-2.899-6.442-6.442-6.442h-61.407c-3.543,0-6.442,2.899-6.442,6.442v2.244
		c0,3.543,2.899,6.442,6.442,6.442h61.407c3.543,0,6.442-2.899,6.442-6.442V830.333z"/>
</g>
<g style="display:inline;">
	<path style="fill:#CAD80E;" d="M461.468,619.769V83.452c0-3.543,2.899-6.442,6.442-6.442h4.728c3.543,0,6.442,2.899,6.442,6.442
		v7.73c0,3.543,2.899,6.442,6.442,6.442h5.841c3.543,0,6.442-2.222,6.442-4.938s2.79-4.938,6.2-4.938c3.41,0,6.2,2.899,6.2,6.442
		v11.016"/>
</g>
<g style="display:inline;">
	<path style="fill:#FFE133;" d="M298.698,460.147v-56.885c0-3.543,2.899-6.442,6.442-6.442h4.728c3.543,0,6.442,2.899,6.442,6.442
		v7.73c0,3.543,2.899,6.442,6.442,6.442h23.021c3.543,0,6.442-2.222,6.442-4.939c0-2.716,2.899-4.938,6.442-4.938h3.81
		c3.543,0,6.442,2.899,6.442,6.442v2.426c0,3.543,2.091,6.442,4.646,6.442c2.556,0,4.647,0,4.647,0"/>
</g>
<g style="display:inline;">
	<path style="fill:#E23333;" d="M52.42,786.107c-3.543,0-6.442-2.899-6.442-6.442v-65.298c0-3.543,2.899-6.442,6.442-6.442h80.608
		c3.543,0,6.442,2.899,6.442,6.442v65.298c0,3.543-2.899,6.442-6.442,6.442H52.42z"/>
</g>
<g style="display:inline;">
	<path style="fill:#FFCE31;" d="M178.78,786.339c-3.543,0-6.442-2.899-6.442-6.442V510.418c0-3.543,2.899-6.442,6.442-6.442h80.608
		c3.543,0,6.442,2.899,6.442,6.442v269.478c0,3.543-2.899,6.442-6.442,6.442H178.78z"/>
</g>
<g style="display:inline;">
	<path style="fill:#FF7E36;" d="M638.473,560.478c3.543,0,6.442,2.899,6.442,6.442v214.056c0,3.543-2.899,6.442-6.442,6.442h-80.615
		c-3.543,0-6.442-2.899-6.442-6.442V566.92c0-3.543,2.899-6.442,6.442-6.442H638.473z"/>
</g>
<path style="display:inline;fill:#D86B35;" d="M619.919,663.276v-0.237c0.053-3.436,0.15-6.646,0.311-9.588
	c0.01-0.032,0.021-0.054,0.032-0.086c0.258-0.032,0.505-0.075,0.741-0.107c-0.322-2.738,0.076-10.448,0.076-10.448l2.136-41.832
	c3.758-3.404,8.772-7.87,12.928-11.177c4.531-3.619,4.864-9.781,3.908-15.601c0-0.021,0-0.021,0-0.032
	c-0.064-0.494-0.161-0.999-0.279-1.493c-0.01-0.065-0.021-0.128-0.032-0.204c-0.73-3.543-1.847-6.84-2.641-9.223
	c-0.311-0.913-0.633-1.836-0.967-2.77h-71.702c0.225,1.686,0.322,3.543,0.311,5.648l-0.172,24.534
	c-0.193,27.766-3.414,47.05-0.343,49.992l-0.033,4.273v0.784l-0.032,4.66l-0.01,0.773c-0.097,19.413-2.491,88.056-4.241,136.276
	h24.094c1.6-40.146,3.909-90.568,5.701-99.984c0.784-4.069,3.039-6.614,6.002-8.622c0.011,0.762,0.033,1.525,0.054,2.287
	c0.644,25.802,2.845,70.898,5.358,106.319h23.719c-2.427-35.153-4.52-81.57-4.907-109.787l13.282,41.273
	c0.333,1.042,1.117,1.665,1.943,1.665c0.279,0,0.558-0.065,0.827-0.215c1.084-0.58,1.6-2.179,1.16-3.554L619.919,663.276z"/>
<g style="display:inline;">
	<path style="fill:#FFE133;" d="M305.14,787.413c-3.543,0-6.442-2.899-6.442-6.442V428.692c0-3.543,2.899-6.442,6.442-6.442h80.608
		c3.543,0,6.442,2.899,6.442,6.442v352.279c0,3.543-2.899,6.442-6.442,6.442H305.14z"/>
</g>
<g style="display:inline;">
	<path style="fill:#CAD80E;" d="M433.069,798.151c-3.543,0-6.442-2.899-6.442-6.442V227.108c0-3.543,2.899-6.442,6.442-6.442h4.728
		c3.543,0,6.442,2.899,6.442,6.442v19.907c0,3.543,2.899,6.442,6.442,6.442h3.756c3.543,0,6.442-2.899,6.442-6.442v-19.907
		c0-3.543,2.899-6.442,6.442-6.442h46.355c3.543,0,6.442,2.899,6.442,6.442v564.601c0,3.543-2.899,6.442-6.442,6.442H433.069z"/>
</g>
<polygon style="display:inline;fill:#CAD80E;" points="520.117,107.402 520.117,682.666 460.612,668.708 460.612,107.402 "/>
<path style="display:inline;opacity:0.3;fill:#607C33;" d="M514.845,504.118c0.505,2.405,1.418,4.853,5.272,9.224v-44.001
	C511.312,497.258,514.351,501.821,514.845,504.118z M495.261,128.683l0.011-0.011h0.032c0.01,0,0.032,0.011,0.043,0.011
	c0.751,0,1.471-0.258,2.136-0.698c0.29-0.194,0.558-0.43,0.816-0.698l1.267,2.856l-17.018,11.703
	c-1.257,0.859-1.836,2.867-1.321,4.553l2.888,9.384c0.075,0.247,0.182,0.462,0.3,0.644c-0.065,0.483-0.032,0.999,0.129,1.482
	l35.572,175.359v-24.385l-31.642-153.068c-0.182-0.558-0.494-0.999-0.87-1.278c-0.021-0.171-0.054-0.332-0.097-0.494l-2.63-8.525
	l17.244-11.853c0.655-0.451,1.127-1.192,1.331-2.105c0.215-0.902,0.129-1.857-0.236-2.673l-2.556-5.756
	c0.022-0.053,0.033-0.096,0.054-0.15c0.01-0.033,0.021-0.086,0.043-0.118c0.01-0.042,0.021-0.085,0.043-0.128
	c0.042-0.172,0.096-0.343,0.139-0.537c0.032-0.129,0.075-0.268,0.107-0.419c0.053-0.215,0.096-0.429,0.139-0.655
	c0.032-0.161,0.065-0.333,0.086-0.505c0.065-0.343,0.118-0.709,0.15-1.084c0.043-0.29,0.064-0.591,0.086-0.881
	c0.022-0.386,0.043-0.784,0.043-1.181c0-0.762-0.032-1.493-0.107-2.201c-0.268-2.652-1.053-4.971-2.169-6.593
	c-0.332-0.494-0.708-0.934-1.106-1.278c-0.182-0.171-0.365-0.311-0.548-0.44c-0.655-0.451-1.374-0.687-2.115-0.687"/>
<path style="display:inline;opacity:0.3;fill:#8271A8;" d="M629.561,838.989v1.664h-23.267c0.118-1.095,0.333-2.104,0.676-2.867
	c-0.548-0.719-0.977-1.642-1.203-2.856c-0.214-1.127-0.429-2.459-0.644-3.994c-1.299-9.073-2.695-24.964-4.005-43.518h23.719
	c1.385,19.928,2.877,36.216,4.219,43.518c0.011,0.085,0.032,0.171,0.043,0.247c0.44,2.34,0.086,3.962-0.752,5.132
	C629.11,836.83,629.571,837.679,629.561,838.989z"/>
<path style="display:inline;opacity:0.3;fill:#8271A8;" d="M581.738,838.956c0.322,0.537,0.612,1.106,0.88,1.697H563.42
	c-2.759,0-5.047-1.911-5.336-4.327c0.021-0.376,0.043-0.87,0.075-1.482c-0.011-0.01-0.011-0.01,0-0.021
	c0.032-0.998,0.075-2.297,0.14-3.886c0.311-8.332,0.913-24.299,1.61-43.518h24.094c-0.73,18.232-1.31,34.337-1.632,43.518
	c-0.182,5.089-0.279,8.053-0.279,8.053L581.738,838.956z"/>
<path style="display:inline;opacity:0.3;fill:#8271A8;" d="M626.984,538.08c-0.301-0.687-0.677-1.3-1.074-1.847
	c-1.557-5.208-12.262-12.004-16.729-13.711c-0.247-0.086-0.494-0.161-0.741-0.225c-0.472-0.988-1.192-2.061-2.491-2.996
	c-0.558-1.353-5.98-2.684-7.591-3.715l1.772-9.846c3.908-1.493,7.108-5.197,11.167-13.003c1.45,1.213,3.297,1.106,3.297,1.106
	c-0.408-0.687-0.655-2.158-0.666-4.638c0-0.526,0-1.095,0.022-1.718c0.945-0.022,1.825-0.172,2.609-0.483
	c0,0,7.848-10.308,3.683-28.206c-2.523-10.866-12.713-19.145-22.527-18.5c-2.609,0.172-5.197,0.977-7.602,2.534
	c-2.996,1.922-5.701,5.036-7.849,9.513c-2.77-0.838-4.799-0.924-5.476-0.354c-2.073,1.707-1.504,7.087,3.596,10.802
	c-1.213,0.365-2.029,0.408-2.523,0.182c0,0,0.483,2.287,1.825,3.672c0.29,0.301,0.623,0.548,0.988,0.741
	c-1.31,3.178-2.33,7.731-2.684,9.309c-0.128,0.559-0.29,1.428-0.461,2.438c-2.437,1.235-3.189,2.448-2.824,4.756
	c0.119,0.752,0.816,1.74,1.675,2.459c-0.161,1.084-0.268,1.826-0.268,1.826c-0.805,5.379-1.235,9.352-0.236,12.423
	c0.354,1.085,0.88,2.051,1.632,2.931c0.15,0.182,0.322,0.343,0.494,0.515c1.503,1.525,3.533,2.577,6.26,3.49
	c0.655,0.655,0.977,1.31,0.869,2.115l-0.161,0.869l-0.88,4.864c-1.235,0.58-2.394,1.224-3.479,1.869
	c-3.586-1.59-10.533-4.424-13.829-4.134c-0.247,0.022-0.483,0.097-0.698,0.204c-1.536,0.751-2.362,3.382-2.588,4.23l-17.501-94.873
	c2.448-0.311,3.522-1.525,3.543-4.596c0.065-6.163-3.414-24.341-10.855-19.391l-18.565-89.806v24.385l12.724,62.726
	c-0.065,0-0.118,0.022-0.172,0.053c-2.641,1.772,0.279,6.614-1.009,14.248c-1.052,6.206-0.386,8.149,1.847,15.365
	c0.472,1.514,0.58,2.974,0.515,4.424c-0.494,0.29-0.956,0.623-1.375,0.977l-0.161,2.201c-1.235,1.095-2.093,2.695-2.298,4.939
	c-0.01,0.129-4.52,13.904-9.406,29.033c-0.236,0.719-0.451,1.417-0.666,2.104v44.001c0.859,0.988,1.879,2.061,3.06,3.253
	c0.011,0.021,0.032,0.021,0.043,0.043c3.103,3.125,7.419,7.044,13.453,12.155c0.601,0.547,1.181,1.084,1.761,1.611
	c0.365,0.332,0.719,0.655,1.074,0.977c0.204,0.182,0.419,0.376,0.623,0.558c0.386,0.344,0.762,0.687,1.149,1.02
	c0.15,0.139,0.311,0.279,0.472,0.418c0.387,0.344,0.773,0.687,1.16,1.02c0.129,0.118,0.258,0.236,0.386,0.343
	c0.387,0.344,0.773,0.677,1.149,1.009c0.108,0.086,0.215,0.183,0.322,0.279c0.387,0.333,0.773,0.666,1.138,0.988
	c0.086,0.064,0.161,0.139,0.247,0.204c0.376,0.323,0.741,0.644,1.095,0.956c2.169,1.857,4.101,3.501,5.819,5.014
	c0.043,0.032,0.076,0.064,0.118,0.097c0.301,0.268,0.591,0.526,0.881,0.783c0.065,0.065,0.139,0.118,0.204,0.183
	c0.269,0.236,0.526,0.472,0.773,0.698c0.096,0.086,0.182,0.172,0.268,0.257c0.225,0.204,0.451,0.419,0.676,0.623
	c0.204,0.193,0.397,0.386,0.601,0.58c0.086,0.086,0.183,0.172,0.279,0.268l0.011,0.011c0.311,0.3,0.612,0.601,0.902,0.902
	c0,0,0,0.01,0.01,0.01c0.011,0.021,0.022,0.033,0.033,0.043c3.811,3.93,5.862,7.484,6.603,12.831h71.702
	C633.094,551.931,629.185,542.954,626.984,538.08z M545.124,434.359l0.204,0.644c-0.064-0.151-0.139-0.301-0.214-0.44
	L545.124,434.359z M543.052,509.863c-6.196-5.347-10.029-15.268-12.058-17.802c2.534-9.985,10.705-29.924,12.724-52.515
	c0.075-0.87,0.086-1.654,0.011-2.352l13.551,75.343c-0.107,0.547-0.097,1.138,0.085,1.696l0.784,2.416
	C554.111,515.532,548.345,513.46,543.052,509.863z"/>
<g style="display:inline;">
	<path style="fill:#607C33;" d="M460.45,109.632h53.226c3.543,0,6.442,2.899,6.442,6.442v6.021c0,3.543-2.899,6.442-6.442,6.442
		H460.45"/>
</g>
<g style="display:inline;">
	<path style="fill:none;stroke:#E5E5E5;stroke-width:5.1119;stroke-linecap:round;stroke-linejoin:round;stroke-miterlimit:10;" d="
		M507.059,150.665l-4.138-10.283c-0.262-0.652,0.029-1.459,0.648-1.792l24.961-13.461c0.619-0.334,0.838-1.105,0.487-1.714
		l-9.793-17.005"/>
</g>
<g style="display:inline;">
	<path style="fill:#4F3A2A;" d="M702.808,824.232c1.911,0,1.587-4.052,5.391-4.669c8.087-1.312,6.156,3.861,9.79,3.902
		c3.367,0.038,6.065,0.851,6.065,3.76c0,2.783,0.244,6.394-0.437,9.363c-0.659,2.872-5.144,3.264-11.694,3.264
		c-5.641,0-12.342-1.113-12.553-3.621C699.068,832.634,697.777,824.232,702.808,824.232z"/>
	<path style="fill:#8E3925;" d="M713.683,439.252c0,0-2.596,0.119-4.631-1.209c-0.775-0.494-1.464-1.201-1.898-2.196
		c-0.034-0.085-0.068-0.171-0.093-0.247c-0.996-2.937,3.856-4.716,5.338-5.184c0.263-0.085,0.417-0.128,0.417-0.128
		c-0.102,1.49-0.136,2.775-0.11,3.882C712.738,436.885,713.105,438.503,713.683,439.252z"/>
	<path style="fill:#8E3925;" d="M661.841,405.423c0,0,0.696,2.504,2.592,4.024c0.711,0.582,1.597,1.018,2.679,1.12
		c0.092,0.006,0.183,0.012,0.264,0.012c3.102,0.033,3.281-5.132,3.264-6.685c-0.001-0.277-0.008-0.436-0.008-0.436
		c-1.384,0.561-2.596,0.993-3.655,1.313C664.385,405.584,662.733,405.74,661.841,405.423z"/>
	<g>
		<path style="fill:#FFB287;" d="M598.7,382.318c-0.026,0.426-0.077,0.843-0.136,1.243c-1.345,8.462-17.809,2.469-17.409,1.694
			c0.408-0.774,0.493-5.065,0.493-5.065c0.494-4.87,2.299-8.82,0.485-13.306c-3.201-7.9-4.163-10.028-2.741-16.838
			c1.737-8.36-2.417-13.663,1.277-15.604c1.064-0.562,2.673,2.06,4.35,5.712c2.971,6.495,6.163,16.26,6.904,17.315
			C593.039,359.035,599.279,373.617,598.7,382.318z"/>
		<path style="fill:#E5785C;" d="M598.7,382.318c-5.159-0.068-11.79-1.039-11.79-1.039s2.528-8.028,2.979-13.059
			c0.451-5.04-0.213-5.474-2.341-11.007c-2.128-5.533-2.767-10.216-3.754-15.536c0,0,0.477-0.596,1.226-1.524
			c2.971,6.495,6.163,16.26,6.904,17.315C593.039,359.035,599.279,373.617,598.7,382.318z"/>
		<path style="fill:#E9E4E8;" d="M580.985,372.811c4.931-3.396,14.792-4.035,17.753,0.412l-0.336,5.059
			c-0.426,2.128-18.019,1.844-18.019,1.844L580.985,372.811z"/>
		
			<line style="fill:#FFB287;stroke:#9B9B9B;stroke-width:5.959;stroke-linecap:round;stroke-miterlimit:10;" x1="508.058" y1="152.798" x2="672.275" y2="544.71"/>
		
			<line style="fill:#FFB287;stroke:#9B9B9B;stroke-width:5.959;stroke-linecap:round;stroke-miterlimit:10;" x1="636.323" y1="460.441" x2="730.745" y2="684.73"/>
		<path style="fill:#FFB287;" d="M597.056,336.451c-5.255,1.122-8.498,5.721-8.583,9.033c-0.085,3.311,2.256,3.313,2.895,8.952
			c0.638,5.639,3.405,9.47,7.449,9.257c4.044-0.213,5.738-1.483,5.746-5.108c0.016-6.762-4.469-13.101-4.469-13.101
			C601.796,343.262,601.041,335.6,597.056,336.451z"/>
	</g>
	<path style="fill:#E5785C;" d="M664.891,421.989c-6.097,1.854-7.956,3.123-7.277,6.36c0.332,1.582,3.704,4.157,5.832,3.59
		C670.987,429.931,664.891,421.989,664.891,421.989z"/>
	<polygon style="fill:#4F3A2A;" points="668.974,839.974 644.393,839.974 642.988,835.434 668.974,835.434 	"/>
	<g>
		<g>
			<g>
				<path style="fill:#FFB287;" d="M670.598,465.088c0,0-1.175,4.478,6.184,6.108c7.36,1.631,12.943-1.871,12.943-1.871
					l4.966-22.413l-18.893-5.297L670.598,465.088z"/>
				<path style="fill:#E5785C;" d="M672.275,457.522c16.943,3.754,16.282,16.443,17.011,13.15c0.73-3.292,6.46-28.517,6.46-28.517
					l-19.156-4.108L672.275,457.522z"/>
				<path style="fill:#FFFFFF;" d="M663.136,466.328c5.156-2.332,11.715-6.016,20.229-5.243
					c11.547,1.049,13.565,7.197,13.042,10.544c-0.521,3.332-27.915-3.753-27.86-4.175c0.056-0.422-5.698-1.178-5.698-1.178"/>
				<path style="fill:#E5785C;" d="M661.684,427.081c-0.976,4.405,0.613,15.408,2.323,18.973c0.729,1.521,1.48,4.775,4.489,6.467
					c2.737,1.54,4.335,2.551,3.984,4.137c-0.381,1.72,3.97-0.814,5.203-0.541c14.661,3.248,24.262-11.192,26.646-21.95
					l-1.391-15.114c2.61-11.778-2.187-21.723-13.584-24.156c-11.397-2.434-19.181,3.812-21.791,15.59L661.684,427.081z"/>
				<path style="fill:#FFB287;" d="M700.982,417.093c-0.068,0.417-1.303,0.604-1.396,1.03l-0.502,3.38l-1.047,6.998
					c-0.306,1.651-0.375,3.49-0.596,5.346c-0.06,0.494-0.128,0.988-0.213,1.481c-0.179,1.005-0.426,1.992-0.817,2.954
					c-2.315,5.737-5.831,11.28-10.649,14.319c-3.312,2.103-7.236,3.014-11.807,2.018c-5.712-1.251-9.603-2.375-12.224-4.75
					c-1.056-0.97-1.805-2.026-2.307-3.209c-1.439-3.371-0.877-7.729,0.204-13.621c0,0,1.745-9.79,2.529-12.582
					c0.519-1.847,2.077-7.475,4.086-10.956c1.03-1.796,2.179-3.022,3.363-2.869c10.564,1.345,4.733-17.417,18.482-14.37
					C699.092,394.695,704.072,401.693,700.982,417.093z"/>
				<path style="fill:#16569B;" d="M684.216,508.655"/>
				<path style="fill:#E5785C;" d="M696.407,438.282c-3.919,17.687-11.234,19.064-22.462,16.613
					c-5.714-1.248-9.588-2.651-12.211-5.034c-1.058-0.967-1.809-2.021-2.309-3.206c2.262,4.096,22.288,9.884,25.964-6.708
					C686.642,434.294,691.432,435.272,696.407,438.282z"/>
				<path style="fill:#8E3925;" d="M694.685,445.705c1.266-1.565,0.566,4.143,0.727,3.478c2.826-11.69,1.557-1.587,5.23-14.41
					c3.131-10.934,9.489-0.073,11.232-5.315c8.549-25.716,2.16-33.444-20.748-38.336c-12.753-2.723-18.801,3.752-20.946,10.691
					c-2.498,8.081-5.75,20.534-1.173,21.548c1.427,0.316,4.28,0.548,4.28,0.548L694.685,445.705z"/>
				<path style="fill:#8E3925;" d="M696.244,438.345c1.119-1.415,0.629,3.686,0.759,3.09c2.282-10.468,2.433,3.532,6.265-7.716
					c3.495-10.262,6.739,1.025,8.955-3.369c12.268-24.321-3.761-39.08-20.585-40.217c-13.553-0.916-17.916,4.884-21.462,8.005
					c-3.27,2.878-3.247-0.699-1.161,2.768c4.605,7.652,3.294,17.059,3.294,17.059L696.244,438.345z"/>
				<path style="fill:#8E3925;" d="M712.174,397.443c-7.861-1.742-13.81-0.994-18.7,0.146c-10.593,2.471-13.054-0.427-15.057,3.611
					c-3.148,6.347,4.2,13.848,7.445,14.454c6.191,1.157,7.965-7.474,10.287-8.461C698.472,406.204,712.174,397.443,712.174,397.443z
					"/>
				<path style="fill:#8E3925;" d="M713.045,427.538c-0.196,0.962-0.409,1.924-0.647,2.878c-0.409,1.592-0.902,3.158-1.584,4.605
					c-0.128,0.298-0.272,0.587-0.426,0.868c-0.187,0.349-0.392,0.69-0.604,1.022c-0.247,0.383-0.494,0.766-0.732,1.132
					c-7.517,11.415-12.923,14.838-21.495,15.136c-0.656,0.025-1.226-0.366-1.796-0.579c-2.52-0.962-4.401-2.349-5.763-4.035
					c-4.674-5.763-3.363-15.008-1.669-22.602c0.179-0.783,0.358-1.541,0.536-2.281c0.426-1.788,0.843-3.439,1.158-4.878l19.06,2.699
					l1.115,0.162c0,0,0.247,1.541,0.494,3.916c0.902,0.289,1.924,0.545,2.979,0.758
					C708.048,427.232,713.045,427.538,713.045,427.538z"/>
				<path style="fill:#FFB287;" d="M668.594,423.051c-1.284,4.32,0.113,8.585,3.119,9.526c3.006,0.941,6.484-1.799,7.768-6.12
					s0.333-8.116-2.582-9.33C673.985,415.912,669.878,418.73,668.594,423.051z"/>
			</g>
		</g>
	</g>
	<path style="fill:#374C58;" d="M665.055,466.962c0,0,4.142,2.382,9.19,4.069c8.672,2.897,27.944,5.954,25.799,1.246
		c-1.003-2.201-2.522-5.998-11.846-7.391c-9.325-1.393-15.334,1.003-21.284,1.712"/>
	<g>
		<path style="fill:#102333;" d="M730.845,544.403c-10.675,6.691-25.513,17.698-25.666,17.809c-1.984,1.473-4.291,2.188-6.589,2.188
			c-3.38,0-6.717-1.549-8.887-4.469c-3.652-4.903-2.622-11.841,2.282-15.485c0.536-0.4,11.441-8.487,21.699-15.298
			c-1.984-5.431-6.759-15.681-15.289-30.246c-3.09-5.269-1.311-12.046,3.958-15.136c3.618-2.12,7.943-1.949,11.297,0.077
			c1.541,0.911,2.877,2.222,3.848,3.882c3.465,5.925,9.952,17.383,14.438,27.59c1.141,2.605,2.733,6.223,3.788,10.105
			c0.025,0.077,0.042,0.145,0.059,0.222c0.145,0.536,0.281,1.081,0.4,1.634c0,0.009,0,0.017,0.008,0.034
			C737.579,533.685,737.17,540.436,730.845,544.403z"/>
		<path style="fill:#1F3242;" d="M734.327,532.519c-2.486,0.843-6.81-0.86-9.364-8.096c-2.554-7.236-10.505-24.832-16.038-34.622
			c0,0,2.009-2.937,4.724-5.959c1.541,0.911,2.877,2.222,3.848,3.882c3.465,5.925,9.952,17.383,14.438,27.59
			c1.141,2.605,2.733,6.223,3.788,10.105c0.025,0.077,0.042,0.145,0.059,0.222c0.17,0.545,0.307,1.098,0.4,1.634
			c0,0.009,0,0.017,0.008,0.034C736.617,529.701,736.294,531.847,734.327,532.519z"/>
	</g>
	<path style="fill:#A25341;" d="M702.808,814.485c1.911,0,1.587-4.052,5.391-4.669c8.087-1.312,6.156,3.861,9.79,3.902
		c3.367,0.039,6.065,0.851,6.065,3.76c0,2.783,0.244,8.541-0.437,11.511c-0.659,2.872-5.144,3.264-11.694,3.264
		c-5.641,0-12.342-1.113-12.553-3.621C699.068,825.035,697.777,814.485,702.808,814.485z"/>
	<path style="fill:#A25341;" d="M668.948,834.966c-0.034,0.936-0.077,1.856-0.136,2.758c0,0-7.398,0.851-21.035-1.941
		c-15.919-3.269-19.495,1.941-27.726,1.941c-8.232,0-17.026,0-17.026,0s-0.655-2.009-0.911-4.376
		c-0.374-3.397,0.051-7.542,4.368-7.542c16.217,0,17.102-3.542,26.619-7.5c8.394-3.49,9.888-11.249,9.888-17.974
		c0,0,9.496,8.346,17.694,13.453C668.012,818.348,669.178,827.083,668.948,834.966z"/>
	<path style="fill:#C7C0B0;" d="M642.988,813.93c5.214,4.044,13.428,8.639,19.643,3.362c0,0-5.916-9.747-8.257-9.108
		C652.033,808.822,642.988,813.93,642.988,813.93z"/>
	<g>
		<path style="fill:#102333;" d="M712.474,817.975c-5.857,0.851-12.574,1.047-14.072-4.946
			c-5.644-22.457-13.68-123.004-15.544-168.573c-0.613-14.932-0.553-28.323,0.46-38.359c0.221-2.179,0.962-4.18,2.086-5.891
			c2.605-3.992,7.295-6.427,12.369-5.908c4.767,0.485,8.675,3.439,10.59,7.466h0.009c0.996,2.103,1.456,4.503,1.2,6.989
			c-0.63,6.197-0.86,13.953-0.783,22.713c0.4,44.173,8.751,154.416,14.54,177.461C725.107,816,718.331,817.124,712.474,817.975z"/>
	</g>
	<path style="fill:#1F3242;" d="M662.368,500.085c-0.119,0.196-0.239,0.383-0.366,0.57c-2.102,3.141-5.602,4.869-9.177,4.869
		c-0.349,0-0.698-0.017-1.056-0.051c2.588,11.348,7.602,41.083-3.141,19.231c-2.92-5.942-4.188,0.4-4.188-6.24
		c0-18.217-10.011-19.605-39.755-40.913c-8.513-5.601-14.608-9.9-19.001-13.323c-0.017-0.017-0.034-0.025-0.051-0.042
		c-9.169-7.151-10.913-10.445-11.825-13.681c-0.724-2.571-1.941-6.879,0.86-41.015c1.311-16.013,2.92-28.714,2.937-28.859
		c0.647-6.078,6.947-7.934,13.025-7.287c6.078,0.639,9.628,2.682,8.99,8.76c-2.622,24.755-4.946,52.559-4.555,61.182
		c2.877,2.775,9.636,7.662,18.388,13.519c12.701,8.504,29.616,19.043,45.007,28.118
		C663.721,488.031,665.475,494.816,662.368,500.085z"/>
	<path style="fill:#1F3242;" d="M709.571,608.752c-0.111,1.098-0.213,2.035-0.298,2.877c-0.307,3.014-0.46,4.878-0.485,8.845
		c-0.008,1.201-0.008,2.588,0.009,4.257c0.842,9.79-18.192,13.076-25.939,17.17c-4.18,2.205-7.372,5.005-8.437,9.501
		c-4.137,17.596-9.194,166.078-9.194,166.078l-27.522-1.992c0,0,6.81-170.045,6.734-203.859c0,0,4.112-1.669,10.352-3.763
		c1.149-0.383,2.375-0.792,3.652-1.192c7.712-2.46,17.596-5.176,26.96-6.47c8.879-1.226,17.289-1.183,22.959,1.558h0.009
		C709.367,603.866,709.827,606.266,709.571,608.752z"/>
	<path style="fill:#1F3242;" d="M716.654,489.112l-6.427,113.392l-0.519,9.143c-0.051,0.86-0.205,1.618-0.46,2.282
		c-1.362,3.66-5.568,4.512-10.326,4.512c0,0-7.917-0.17-17.724-0.698h-0.034c-15.893-0.86-36.724-2.639-36.724-6.112V504.673
		c0-5.618-2.894-13.791-6.419-18.158c-0.273-0.34-0.775-0.885-1.464-1.601c-8.13-8.538-42.309-41.288-29.216-31.863
		c1.941,1.396,4.001,2.647,6.112,3.754c12.599,6.657,26.994,8.538,28.518,8.717c0.042,0.009,0.094,0.009,0.136,0.017
		c0,0,1.124-3.95,3.695-4.946c0.306-0.119,0.63-0.196,0.979-0.221c6.385-0.434,22.602,5.652,22.602,5.652
		c5.389,1.592,16.549,3.26,19.988,3.61c3.439,0.349,7.313,0.025,10.769,1.047C707.801,472.963,716.969,483.502,716.654,489.112z"/>
	<path style="fill:#72514A;" d="M709.248,613.928c-1.362,3.66-5.568,3.66-10.326,3.66c0,0-7.917-0.17-17.724-0.698h-0.034
		c-15.893-0.86-36.724-2.639-36.724-6.113v-5.959c0,3.473,20.831,5.253,36.724,6.112h0.034c9.807,0.528,17.724,0.698,17.724,0.698
		c4.759,0,9.357-0.483,10.719-4.143C709.896,606.822,709.503,613.264,709.248,613.928z"/>
	<path style="fill:#F1EAE9;" d="M664.76,610.608c-2.614-0.256-5.142-0.528-7.466-0.843c-7.432-0.988-12.855-2.324-12.855-4.095
		v-5.533c3.226,2.384,7.525,5.074,12.718,7.177C659.286,608.437,661.814,609.569,664.76,610.608z"/>
	<path style="fill:#1F3242;" d="M663.951,586.21c-2.554,12.982,14.817,28.267,4.75,25.637
		c-28.214-7.369-41.394-20.007-41.394-20.007s16.852-38.083,16.852-68.517c0-17.664,29.582,24.366,31.072,28.622
		C676.72,556.202,663.951,586.21,663.951,586.21z"/>
	<path style="opacity:0.3;fill:#102333;" d="M709.274,611.63c-0.307,3.014-0.46,4.878-0.485,8.845h-0.008
		c-1.839,0.775-32.528,2.537-51.486-10.709c-0.86-0.604-1.694-1.234-2.503-1.898c-1.277-1.047-2.477-2.171-3.593-3.388
		c3.056,1.686,6.589,3.269,10.522,4.452c2.009,0.604,3.192,0.57,3.823,0.017c1.949,0.528,4.01,1.03,6.189,1.482
		c2.903,0.596,6.027,1.089,9.432,1.353C688.204,612.345,706.116,613.298,709.274,611.63z"/>
	<path style="fill:#1F3242;" d="M710.227,613.945c-3.047,0.375-7.227,0.656-11.977,0.8c-1.72,0.051-3.516,0.076-5.355,0.094h-0.528
		c-29.48,0.102-42.607-12.02-44.046-13.952c-1.379-1.848-1.881-1.907-3.882-4.895c-0.094-0.136-0.188-0.273-0.281-0.417
		c0,0,0.094-0.042,0.281-0.119c2.741-1.132,24.67-10.275,25.368-11.263c0.494-0.723,24.645,10.726,40.419,18.312
		C710.227,602.504,709.75,610.949,710.227,613.945z"/>
	<path style="opacity:0.7;fill:#102333;" d="M698.25,614.745c-1.72,0.051-3.516,0.076-5.355,0.094l2.196-10.258L698.25,614.745z"/>
	<path style="fill:#102333;" d="M652.837,476.074c-0.213-5.721-5.285-10.29-10.731-10.535c0,0,1.124-3.95,3.695-4.946
		C654.693,463.518,652.837,476.074,652.837,476.074z"/>
	<path style="opacity:0.7;fill:#102333;" d="M652.118,501.507c-1.37,3.771-3.269,7.977-4.827,11.254
		c-3.448-5.967-7.866-10.462-11.535-13.561c-0.255-0.213-0.502-0.426-0.749-0.621c-0.162-0.136-0.332-0.272-0.502-0.409
		c-0.077-0.06-0.145-0.119-0.213-0.17c-0.136-0.111-0.281-0.221-0.426-0.332c-0.204-0.162-0.409-0.324-0.604-0.469
		c-0.026-0.017-0.043-0.034-0.068-0.051c-6.274-4.767-15.502-10.284-28.51-19.597c-8.513-5.601-14.608-9.9-19.001-13.323
		c-0.017-0.017-0.034-0.025-0.051-0.042c-4.623-3.823,0.213-6.793,6.172-2.614c4.58,3.209,25.505,14.515,44.752,23.342
		c3.15,1.439,6.299,2.716,9.228,4.087C651.752,491.785,653.855,496.705,652.118,501.507z"/>
	<path style="fill:#4F3A2A;" d="M668.965,833.969c-0.026,1.132-0.085,4.801-0.153,5.883c0,0-7.062-2.724-20.982-2.724
		c-16.6,0-19.548,2.724-27.78,2.724c-8.232,0-17.026,0-17.026,0s-0.477-1.481-0.775-3.405h17.801c8.232,0,12.297-2.792,29.429-2.792
		C660.298,833.654,665.334,833.969,668.965,833.969z"/>
	<path style="opacity:0.3;fill:#102333;" d="M712.815,430.288c-0.102,1.49-0.136,2.775-0.11,3.882
		c-0.596,0.358-1.226,0.639-1.89,0.851c-1.192,0.392-2.46,0.553-3.754,0.579c-3.525,0.051-7.177-0.996-9.62-1.754
		c-1.243-0.392-2.349-0.766-3.167-1.081c-6.146-2.367-11.271-5.644-15.408-9.083c-6.563-5.44-10.684-11.05-12.625-14.183
		c1.03-1.796,2.179-3.022,3.363-2.869c10.564,1.345,4.733-17.417,18.482-14.37c11.007,2.435,15.987,9.432,12.897,24.832
		c-0.068,0.417-1.303,0.604-1.396,1.03l-0.502,3.38l1.115,0.162c0,0,0.247,1.541,0.494,3.916c0.902,0.289,1.924,0.545,2.979,0.758
		c4.375,0.894,9.372,1.2,9.372,1.2c-0.196,0.962-0.409,1.924-0.647,2.878C712.661,430.33,712.815,430.288,712.815,430.288z"/>
	<g>
		<g>
			<path style="fill:#E5AC1C;" d="M665.972,405.785c-8.335-4.147-9.418-10.645-6.335-12.648c2.759-1.793,21.203,2.222,35.489,15.256
				c5.93,5.41,2.53-3.255,10.276,4.001C723.171,429.014,665.972,405.785,665.972,405.785z"/>
			<path style="fill:#FFEC66;" d="M716.85,432.239c-4.363,1.314-10.663,0.145-17.386-2.462c-7.284-2.841-15.063-7.376-21.401-12.324
				c-8.918-6.969-14.989-14.75-12.803-19.698c0.101-0.219,0.193-0.438,0.313-0.656c0-0.009,0-0.009,0-0.009
				c3.224-6.986,7.825-11.553,13.033-14.178c3.426-1.734,7.118-2.634,10.847-2.822c14.016-0.726,28.665,8.523,32.385,20.655
				C727.973,420.728,716.85,432.239,716.85,432.239z"/>
			<path style="fill:#FFCE31;" d="M704.267,429.258c-1.405,0.425-3.031,0.587-4.803,0.519c-7.284-2.841-15.063-7.376-21.401-12.324
				c-8.918-6.969-14.989-14.75-12.803-19.698c0.101-0.219,0.193-0.438,0.313-0.656c0-0.009,0-0.009,0-0.009
				c3.224-6.986,7.825-11.553,13.033-14.178c3.426-1.734,7.118-2.634,10.847-2.822c9.23,3.114,17.111,10.07,19.682,18.442
				C715.123,418.032,704.267,429.258,704.267,429.258z"/>
		</g>
		<path style="fill:#FFE2CC;" d="M692.066,386.858c-5.463-0.449-10.724,0.951-14.776,4.74c-4.093,3.828,2.054,9.949,6.133,6.134
			c2.394-2.239,5.518-2.456,8.643-2.199c2.359,0.194,4.337-2.119,4.337-4.337C696.403,388.685,694.421,387.052,692.066,386.858z"/>
	</g>
</g>
<g style="display:inline;">
	<g>
		<g>
			<g>
				<path style="fill:#C68D6D;" d="M528.595,109.629c0,5.283-2.33,9.792-5.607,11.521c-0.932,0.483-1.939,0.762-2.984,0.762
					c-4.75,0-8.598-5.498-8.598-12.283c0-0.827,0.053-1.632,0.165-2.405c0.128-0.923,0.331-1.804,0.594-2.641
					c0.571-1.804,1.435-3.371,2.51-4.585c1.458-1.654,3.314-2.641,5.329-2.641c1.045,0,2.052,0.268,2.984,0.762
					c0.849,0.451,1.638,1.085,2.337,1.879c1.075,1.213,1.939,2.781,2.51,4.585c0.263,0.838,0.466,1.718,0.594,2.641
					C528.542,107.997,528.595,108.802,528.595,109.629z"/>
				<g>
					<path style="fill:#CAD80E;" d="M528.783,109.629c0,0.44-0.015,0.88-0.053,1.299c-0.023,0.322-0.053,0.644-0.098,0.966
						c-0.053,0.408-0.12,0.805-0.203,1.192c-0.03,0.182-0.075,0.376-0.12,0.548c-0.06,0.247-0.12,0.483-0.196,0.719
						c-0.037,0.161-0.09,0.311-0.135,0.462c-0.068,0.204-0.135,0.397-0.203,0.58c-0.023,0.054-0.038,0.097-0.053,0.14
						c-0.023,0.043-0.038,0.096-0.06,0.139c-0.053,0.14-0.105,0.269-0.165,0.397c-0.038,0.107-0.083,0.204-0.135,0.3
						c-0.06,0.14-0.128,0.29-0.195,0.419c-0.165,0.333-0.338,0.644-0.526,0.945c-0.932,1.525-2.112,2.706-3.465,3.415
						c-0.932,0.483-1.939,0.762-2.984,0.762c-0.03,0-0.06-0.011-0.083-0.011c-0.015,0-0.03,0.011-0.045,0.011h-53.228
						c1.045,0,2.052-0.279,2.976-0.762c1.353-0.709,2.533-1.89,3.465-3.415c0.188-0.3,0.361-0.612,0.526-0.945
						c0.068-0.14,0.135-0.279,0.195-0.419c0.053-0.096,0.098-0.193,0.135-0.3c0.083-0.172,0.158-0.354,0.225-0.537
						c0.015-0.043,0.03-0.086,0.053-0.14c0.068-0.193,0.135-0.387,0.203-0.58c0.045-0.15,0.098-0.301,0.135-0.462
						c0.075-0.236,0.135-0.472,0.195-0.719c0.045-0.183,0.083-0.365,0.12-0.548c0.083-0.387,0.15-0.784,0.203-1.192
						c0.038-0.311,0.075-0.644,0.098-0.966c0.038-0.419,0.053-0.859,0.053-1.299c0-0.827-0.053-1.632-0.165-2.405
						c-0.338-2.448-1.195-4.628-2.383-6.313c-0.233-0.322-0.466-0.623-0.721-0.913c-0.699-0.794-1.488-1.428-2.337-1.879
						c-0.872-0.462-1.811-0.73-2.781-0.751c-0.068-0.011-0.135-0.011-0.203-0.011h53.364c1.045,0,2.052,0.268,2.984,0.762
						c0.849,0.451,1.638,1.085,2.337,1.879c1.571,1.772,2.698,4.316,3.104,7.226C528.73,107.997,528.783,108.802,528.783,109.629z"
						/>
				</g>
				<path style="fill:#95B218;" d="M527.663,115.674c-0.053,0.14-0.105,0.269-0.165,0.397c-0.038,0.107-0.083,0.204-0.135,0.3
					c-0.06,0.14-0.128,0.29-0.195,0.419c-0.165,0.333-0.338,0.644-0.526,0.945c-0.932,1.525-2.112,2.706-3.465,3.415
					c-0.932,0.483-1.939,0.762-2.984,0.762c-0.03,0-0.06-0.011-0.083-0.011c-0.015,0-0.03,0.011-0.045,0.011h-53.228
					c1.045,0,2.052-0.279,2.976-0.762c1.353-0.709,2.533-1.89,3.465-3.415c0.188-0.3,0.361-0.612,0.526-0.945
					c0.068-0.14,0.135-0.279,0.195-0.419c0.053-0.096,0.098-0.193,0.135-0.3c0.083-0.172,0.158-0.354,0.225-0.537
					c0.015-0.043,0.03-0.086,0.053-0.14c0.068-0.193,0.135-0.387,0.203-0.58c0.045-0.15,0.098-0.301,0.135-0.462
					c0.075-0.236,0.135-0.472,0.195-0.719c0.045-0.183,0.083-0.365,0.12-0.548c0.083-0.387,0.15-0.784,0.203-1.192
					c0.038-0.311,0.075-0.644,0.098-0.966c0.038-0.419,0.053-0.859,0.053-1.299c0-0.827-0.053-1.632-0.165-2.405
					c-0.338-2.448-1.195-4.628-2.383-6.313c7.057,5.336,33.642,14.763,46.449,14.763H527.663z"/>
			</g>
			<ellipse style="fill:#FFCF8A;" cx="467.524" cy="109.632" rx="8.594" ry="12.278"/>
			<path style="fill:#472736;" d="M464.297,109.632c0,2.547,1.445,4.611,3.227,4.611c1.783,0,3.228-2.064,3.228-4.611
				c0-2.546-1.445-4.611-3.228-4.611C465.742,105.021,464.297,107.085,464.297,109.632z"/>
		</g>
		<g>
			
				<line style="fill:none;stroke:#AEB0AF;stroke-width:5.1119;stroke-linecap:round;stroke-linejoin:round;stroke-miterlimit:10;" x1="464.523" y1="109.49" x2="466.875" y2="109.49"/>
		</g>
	</g>
	<g>
		<path style="fill:#F2BE3D;" d="M470.274,121.909h0.116c-0.026-0.001-0.051-0.005-0.077-0.006
			C470.299,121.904,470.287,121.909,470.274,121.909z"/>
	</g>
</g>
<g style="display:inline;">
	<path style="fill:#CAD80E;" d="M436.964,209.541c3.41,0,6.2-2.899,6.2-6.442v-3.435c0-3.543-2.79-6.442-6.2-6.442
		c-3.41,0-6.2,2.899-6.2,6.442v3.435C430.765,206.642,433.554,209.541,436.964,209.541z"/>
</g>
<g style="display:inline;">
	<path style="fill:#FFCE31;" d="M248.285,496.223c3.41,0,6.2-2.899,6.2-6.442v-3.435c0-3.543-2.79-6.442-6.2-6.442
		c-3.41,0-6.2,2.899-6.2,6.442v3.435C242.085,493.324,244.875,496.223,248.285,496.223z"/>
</g>
<g style="display:inline;">
	<path style="fill:#CAD80E;" d="M514.257,806.311c3.41,0,6.2-2.899,6.2-6.442V764.22c0-3.543-2.79-6.442-6.2-6.442
		c-3.41,0-6.2,2.899-6.2,6.442v35.649C508.058,803.412,510.848,806.311,514.257,806.311z"/>
</g>
<g style="display:inline;">
	<path style="fill:#E23333;" d="M139.471,830.065v-50.606c0-3.543-2.361-6.442-5.247-6.442c-2.886,0-5.247,2.899-5.247,6.442v50.606
		"/>
</g>
<g style="display:inline;">
	<path style="fill:#FFE133;" d="M311.098,794.152c3.543,0,6.442-2.899,6.442-6.442v-5.583c0-3.543-2.899-6.442-6.442-6.442h-5.958
		c-3.543,0-6.442,2.899-6.442,6.442v5.583c0,3.543,2.899,6.442,6.442,6.442H311.098z"/>
</g>
<g style="display:inline;">
	<path style="fill:#FFCE31;" d="M185.115,515.344c3.543,0,6.442-2.899,6.442-6.442v-10.769c0-3.543-2.899-6.442-6.442-6.442h-5.958
		c-3.543,0-6.442,2.899-6.442,6.442v10.769c0,3.543,2.899,6.442,6.442,6.442H185.115z"/>
</g>
<g style="display:inline;">
	<g>
		<path style="fill:#F8EED3;" d="M762.92,772.779c-2.95,0-5.364,2.414-5.364,5.364v53.314c0,2.95,2.414,5.364,5.364,5.364h67.841
			c2.95,0,5.364-2.414,5.364-5.364v-53.314c0-2.95-2.414-5.364-5.364-5.364H762.92z"/>
	</g>
	<g>
		<path style="fill:#C2B9BC;" d="M757.558,773.065v4.826c0,1.475,1.207,2.682,2.682,2.681l73.206-0.039
			c1.475-0.001,2.682-1.208,2.682-2.684v-4.826"/>
	</g>
	<g>
		<path style="fill:#E6FFF4;" d="M760.24,768.806c-1.475,0.001-2.682,1.208-2.682,2.683v2.101c0,1.475,1.207,2.682,2.682,2.682
			h73.206c1.475,0,2.682-1.207,2.682-2.682v-2.143c0-1.475-1.207-2.681-2.682-2.681L760.24,768.806z"/>
	</g>
	<g>
		<path style="fill:#E8DFE2;" d="M757.558,768.807v4.783c0,1.475,1.207,2.682,2.682,2.682h15.757c1.475,0,2.682-1.207,2.682-2.682
			v-4.826"/>
	</g>
	<g>
		<path style="fill:#C9D800;" d="M824.934,768.746v35.373c0,1.475-1.207,2.682-2.682,2.682h-2.592c-1.475,0-2.682,1.207-2.682,2.682
			v4.57c0,1.475-1.207,2.682-2.682,2.682h-6.182c-1.475,0-2.682-1.207-2.682-2.682V797.42c0-1.475-1.207-2.682-2.682-2.682h-5.593
			c-1.475,0-2.682,1.207-2.682,2.682v5.28c0,1.475-1.207,2.682-2.682,2.682h-5.081c-1.475,0-2.682,1.207-2.682,2.682v9.3
			c0,1.475-1.207,2.682-2.682,2.682h-13.971c-1.475,0-2.682,1.207-2.682,2.682v2.94c0,1.475-1.207,2.682-2.682,2.682h-1.772
			c-1.475,0-2.682-1.207-2.682-2.682v-56.924"/>
	</g>
	<g style="opacity:0.5;">
		<path style="fill:#FFFFFF;" d="M806.01,768.782c-0.939,0.001-1.708,0.77-1.708,1.709v1.107c0,0.939,0.768,1.708,1.708,1.708
			h24.186c0.939,0,1.707-0.768,1.707-1.708v-1.126c0-0.939-0.768-1.707-1.707-1.706L806.01,768.782z"/>
	</g>
	<g>
		<path style="fill:#E8DFE2;" d="M757.558,831.46c0,2.95,2.414,5.364,5.364,5.364h10.353c2.95,0,5.364-2.414,5.364-5.364v-49.57
			c0-2.95-2.414-5.364-5.364-5.364h-10.353c-2.95,0-5.364,2.414-5.364,5.364V831.46z"/>
	</g>
</g>
<g style="display:inline;">
	<g>
		<rect x="358.547" y="777.247" style="fill:#E1FBFF;" width="46.396" height="59.472"/>
		<rect x="358.547" y="788.326" style="fill:#CAD80E;" width="46.396" height="37.313"/>
		<rect x="358.547" y="777.247" style="fill:#D8C7BF;" width="17.346" height="59.472"/>
		<rect x="387.637" y="777.247" style="opacity:0.3;fill:#FFFFFF;" width="9.989" height="59.472"/>
	</g>
	
		<line style="fill:none;stroke:#7C919B;stroke-width:5.3686;stroke-linecap:round;stroke-miterlimit:10;" x1="404.944" y1="836.719" x2="358.547" y2="836.719"/>
	<g>
		<path style="fill:#7C919B;" d="M356.501,777.427c0,1.131,0.918,2.049,2.049,2.049h46.395c1.131,0,2.049-0.918,2.049-2.049
			c0-1.131-0.918-2.049-2.049-2.049H358.55C357.419,775.378,356.501,776.296,356.501,777.427z"/>
	</g>
	<g>
		<path style="fill:#CAD80E;" d="M378.124,775.378c-1.181,0-2.147,0.922-2.147,2.049c0,1.127,0.966,2.049,2.147,2.049h2.265
			c1.181,0,2.147-0.922,2.147-2.049c0-1.127-0.966-2.049-2.147-2.049H378.124z"/>
	</g>
	<g>
		<path style="fill:#CAD80E;" d="M388.682,776.452c0-0.59,0.483-1.074,1.074-1.074h12.336c0.591,0,1.074,0.483,1.074,1.074v1.921
			c0,0.59-0.483,1.074-1.074,1.074h-12.336c-0.591,0-1.074-0.483-1.074-1.074V776.452z"/>
	</g>
	<rect x="358.547" y="779.446" style="fill:#F9DFD0;" width="46.396" height="2.399"/>
</g>
<g style="display:inline;">
	<g>
		<rect x="416.712" y="776.35" style="fill:#E1FBFF;" width="47.096" height="60.369"/>
		<rect x="416.712" y="787.597" style="fill:#FFE133;" width="47.096" height="37.876"/>
		<rect x="416.712" y="776.35" style="fill:#D8C7BF;" width="17.608" height="60.369"/>
		<rect x="446.24" y="776.35" style="opacity:0.1;fill:#FFFFFF;" width="10.14" height="60.369"/>
	</g>
	
		<line style="fill:none;stroke:#7C919B;stroke-width:5.3686;stroke-linecap:round;stroke-miterlimit:10;" x1="463.808" y1="836.719" x2="416.712" y2="836.719"/>
	<g>
		<path style="fill:#7C919B;" d="M414.635,776.534c0,1.148,0.932,2.08,2.08,2.08h47.094c1.148,0,2.08-0.932,2.08-2.08
			c0-1.148-0.932-2.08-2.08-2.08h-47.094C415.567,774.453,414.635,775.385,414.635,776.534z"/>
	</g>
	<g>
		<path style="fill:#FFE536;" d="M436.552,774.453c-1.181,0-2.147,0.936-2.147,2.08c0,1.144,0.966,2.08,2.147,2.08h2.364
			c1.181,0,2.147-0.936,2.147-2.08c0-1.144-0.966-2.08-2.147-2.08H436.552z"/>
	</g>
	<g>
		<path style="fill:#FFE536;" d="M447.301,775.527c0-0.591,0.483-1.074,1.074-1.074h12.555c0.59,0,1.074,0.483,1.074,1.074v0.188
			c0,0.591-0.483,1.074-1.074,1.074h-3.246c-0.591,0-1.074,0.483-1.074,1.074v0.51c0,0.591-0.483,1.074-1.074,1.074h-4.197
			c-0.591,0-1.074-0.483-1.074-1.074v-0.51c0-0.591-0.483-1.074-1.074-1.074h-0.817c-0.591,0-1.074-0.483-1.074-1.074V775.527z"/>
	</g>
	<g>
		<path style="fill:#FFE536;" d="M453.62,778.549v10.411c0,1.181,0.679,2.147,1.508,2.147s1.508-0.966,1.508-2.147v-10.411"/>
	</g>
	<rect x="416.712" y="778.583" style="fill:#F9DFD0;" width="47.096" height="2.435"/>
</g>
<g style="display:inline;">
	<g style="opacity:0.7;">
		<path style="fill:#8271A8;" d="M314.942,834.989c0-2.979-2.899-5.417-6.442-5.417h-55.63c-3.543,0-6.442,2.437-6.442,5.417
			c0,2.979,2.899,5.417,6.442,5.417h55.63C312.043,840.405,314.942,837.968,314.942,834.989z"/>
	</g>
	<g>
		<path style="fill:#F23D3D;" d="M264.945,834.989c0-2.979-2.899-5.417-6.442-5.417h-12.487c-3.543,0-6.442,2.437-6.442,5.417
			c0,2.979,2.899,5.417,6.442,5.417h12.487C262.046,840.405,264.945,837.968,264.945,834.989z"/>
	</g>
	<g>
		<path style="fill:#9DB9C4;" d="M318.377,813.47c-0.032-1.224-0.236-4.037-0.837-6.818c-1.332-6.195-3.64-9.599-5.337-11.36
			c-2.48-2.577-4.928-2.931-6.174-2.91c-0.913,0.01-1.965,0.128-3.425,0.837c-0.505,0.247-1.052,0.601-1.579,1.02
			c-0.289,0.214-0.569,0.461-0.837,0.719c-0.182,0.172-0.354,0.343-0.515,0.526c-0.709,0.783-2.867,3.156-4.467,8.536
			c-0.29,0.966-0.547,1.997-0.751,3.06c-0.236,1.149-0.236,1.149-0.515,3.286c-0.118,0.891-0.129,0.988-0.258,3.49
			c-0.021,0.537-0.01,1.256-0.021,1.804c0.064,2.47,0.107,2.888,0.322,4.918c0,0.043,0.01,0.129,0.021,0.236
			c0.086,0.59,0.29,1.976,0.537,3.082c0.913,4.133,2.105,6.571,2.577,7.44c0.526,0.945,1.514,2.749,3.082,4.252
			c0.257,0.247,0.526,0.494,0.826,0.719c0.011,0.011,0.033,0.022,0.043,0.033c1.6,1.224,3.168,1.803,4.961,1.826
			c1.986,0.021,3.511-0.87,4.016-1.16c1.127-0.655,2.394-1.858,3.318-3.114c0.848-1.17,1.16-1.739,1.911-3.2
			c0.365-0.708,0.676-1.535,1.116-2.673c0.494-1.332,1.203-3.94,1.525-6.174C318.485,817.872,318.442,815.843,318.377,813.47z
			 M304.634,836.362c-0.43,0.01-0.859-0.021-1.278-0.107c-0.848-0.172-1.665-0.547-2.437-1.106
			c-3.232-2.287-5.745-7.644-6.647-14.334c-0.225-1.653-0.354-3.383-0.365-5.176c-0.086-9.298,2.856-17.297,7.012-20.229
			c0.773-0.558,1.578-0.934,2.426-1.106c0.301-0.064,0.612-0.107,0.924-0.118c5.819-0.204,10.619,9.073,10.726,20.723
			c0.021,2.051-0.108,4.026-0.376,5.905C313.417,829.63,309.423,836.19,304.634,836.362z"/>
	</g>
	<g>
		<path style="fill:#E1FBFF;" d="M304.607,836.306c-0.063,0.002-0.125,0.003-0.187,0.003h-1.858c0.062,0,0.125-0.001,0.187-0.003
			c5.808-0.203,10.435-9.784,10.333-21.401c-0.1-11.492-4.79-20.67-10.514-20.67h1.858c0.632,0,1.251,0.112,1.853,0.326
			c0.028,0.01,0.055,0.02,0.083,0.03c0.666,0.249,1.311,0.623,1.928,1.111c0.655,0.518,1.277,1.164,1.861,1.923
			c0.552,0.718,1.068,1.536,1.542,2.443c0.985,1.884,1.788,4.149,2.349,6.678c0.295,1.35,0.482,2.488,0.647,3.926
			c0.152,1.365,0.238,2.78,0.251,4.232c0.063,7.261-1.72,13.726-4.485,17.604c-0.597,0.827-1.11,1.406-1.769,2.001
			C307.438,835.618,306.059,836.255,304.607,836.306z M306.718,835.805l-0.118,0.051l-0.122,0.05l-0.126,0.049l-0.13,0.047
			l-0.133,0.044l-0.135,0.041l-0.137,0.038l-0.138,0.035l-0.139,0.031l-0.139,0.027l-0.138,0.024l-0.137,0.02l-0.135,0.016
			l-0.132,0.013l-0.129,0.009l-0.125,0.006l0.125-0.006l0.129-0.009l0.132-0.013l0.135-0.016l0.137-0.02l0.138-0.024l0.139-0.027
			l0.139-0.031l0.138-0.035l0.137-0.038l0.135-0.041l0.133-0.044l0.13-0.047l0.126-0.049l0.122-0.05L306.718,835.805"/>
	</g>
	<g>
		<path style="fill:#E1FBFF;" d="M313.084,814.909c0.021,2.051-0.107,4.026-0.376,5.905c-1.149,8.418-4.843,14.764-9.352,15.44
			c-0.204,0.032-0.408,0.043-0.612,0.053h-5.089c0.88-0.032,1.729-0.279,2.545-0.719c0.246-0.118,0.483-0.268,0.719-0.44
			c3.264-2.265,5.787-7.644,6.7-14.334c0.258-1.879,0.386-3.865,0.365-5.905c-0.076-9.073-3.017-16.697-7.065-19.499
			c-0.236-0.172-0.483-0.322-0.73-0.451c-0.87-0.472-1.783-0.719-2.716-0.719h5.1c0.257,0,0.515,0.021,0.773,0.064
			C308.714,795.077,312.987,803.925,313.084,814.909z"/>
	</g>
	<g>
		<path style="fill:#F23D3D;" d="M307.984,814.909c0.021,2.04-0.107,4.026-0.365,5.905c-0.913,6.689-3.435,12.068-6.7,14.334
			c-0.236,0.172-0.473,0.322-0.719,0.44c-0.816,0.44-1.665,0.687-2.545,0.719h-29.313c4.778-0.171,8.773-6.7,9.964-15.493
			c0.268-1.879,0.397-3.854,0.376-5.905c-0.108-11.499-4.789-20.669-10.512-20.669h29.302c0.934,0,1.846,0.247,2.716,0.719
			c0.247,0.129,0.494,0.279,0.73,0.451C304.967,798.212,307.909,805.836,307.984,814.909z"/>
	</g>
	<g>
		<path style="fill:#E1FBFF;" d="M278.682,814.909c0.021,2.051-0.108,4.026-0.376,5.905c-1.192,8.794-5.186,15.322-9.964,15.493
			h-6.378c4.778-0.171,8.762-6.689,9.964-15.472c0.257-1.879,0.397-3.876,0.375-5.927c-0.107-11.499-4.789-20.669-10.512-20.669
			h6.378C273.894,794.24,278.575,803.409,278.682,814.909z"/>
	</g>
	<g>
		<path style="fill:#9DB9C4;" d="M271.767,806.48c-0.826-3.812-1.739-5.744-2.48-7.302c-0.719-1.525-2.019-3.414-3.082-4.477
			c-0.139-0.139-0.311-0.3-0.483-0.461c-0.257-0.247-0.537-0.494-0.794-0.687c-0.816-0.623-1.332-0.913-1.622-1.052
			c-0.719-0.333-1.117-0.515-1.889-0.709c-0.956-0.236-1.74-0.247-1.954-0.247c-1.02,0.021-2.179,0.14-3.79,0.923
			c-1.568,0.763-2.781,2.041-3.178,2.459c-1.095,1.149-3.146,3.823-4.66,8.869c-0.203,0.655-0.504,1.74-0.773,3.125
			c-0.236,1.17-0.236,1.17-0.526,3.361c-0.118,0.902-0.139,1.203-0.257,3.543c-0.032,0.548-0.021,1.289-0.021,1.836
			c0.033,1.353,0.064,2.749,0.258,4.478c0.021,0.172,0.043,0.354,0.064,0.537c0.172,1.32,0.344,2.319,0.58,3.393
			c0.107,0.494,0.225,0.999,0.354,1.557c0.322,1.299,0.977,3.114,1.02,3.232c0.848,2.104,1.052,2.48,1.868,3.93
			c0.268,0.462,0.666,1.063,0.988,1.493c0.375,0.483,0.902,1.106,1.31,1.557c0.172,0.193,0.816,0.859,1.954,1.643
			c0.988,0.676,2.62,1.493,4.8,1.514c0.988,0.011,2.512-0.171,4.219-1.149c0.022-0.011,0.033-0.022,0.054-0.043
			c0.322-0.182,0.655-0.397,0.988-0.644c0.021-0.032,0.043-0.043,0.075-0.064c0.311-0.226,0.623-0.494,0.945-0.784
			c0.569-0.526,1.138-1.17,1.707-1.922c1.783-2.383,2.931-5.207,3.661-7.709c0.547-1.836,0.87-3.511,1.052-4.714
			c0.064-0.386,0.118-0.773,0.161-1.149C273.131,814.318,272.336,809.1,271.767,806.48z M257.315,836.308
			c-4.413,0.151-8.235-5.143-9.867-12.788c-0.236-1.117-0.429-2.276-0.558-3.49c-0.171-1.407-0.268-2.878-0.279-4.392
			c-0.096-11.617,4.531-21.195,10.34-21.399c5.809-0.204,10.598,9.051,10.694,20.669c0.011,1.149-0.021,2.276-0.107,3.382
			c-0.022,0.343-0.053,0.687-0.086,1.031C266.517,828.856,262.372,836.136,257.315,836.308z"/>
	</g>
	<path style="fill:#BAA8A2;" d="M317.916,821.845c-0.322,2.233-1.031,4.842-1.525,6.174c-0.44,1.138-0.751,1.965-1.116,2.673
		c-0.752,1.461-1.063,2.029-1.911,3.2c-0.923,1.256-2.19,2.459-3.318,3.114c-0.505,0.289-2.03,1.181-4.016,1.16
		c-1.793-0.022-3.361-0.602-4.961-1.826c-0.01-0.011-0.032-0.021-0.043-0.033h-35.293c-2.491,2.33-4.907,2.706-6.281,2.684
		c-2.18-0.021-3.812-0.837-4.8-1.514c-1.138-0.784-1.782-1.45-1.954-1.643c-0.408-0.451-0.934-1.074-1.31-1.557
		c-0.322-0.43-0.72-1.031-0.988-1.493c-0.816-1.45-1.02-1.826-1.868-3.93c-0.043-0.118-0.698-1.932-1.02-3.232
		c-0.129-0.558-0.247-1.063-0.354-1.557l0.29-0.547c1.632,7.645,5.455,12.938,9.867,12.788c5.24-0.182,9.503-7.977,10.222-18.017
		c0.076,0.333,0.118,0.687,0.118,1.052c0,2.319,3.629,1.632,4.273,1.493c0.064-0.011,0.096-0.022,0.096-0.022h40.683
		c1.213,0,1.911,0,1.911,0S316.831,822.06,317.916,821.845z"/>
	<path style="fill:#F23D3D;" d="M271.102,826.677c-0.73,2.502-1.879,5.326-3.661,7.709c-0.569,0.752-1.138,1.396-1.707,1.922
		c-0.323,0.29-0.634,0.558-0.945,0.784c-0.032,0.021-0.053,0.032-0.075,0.064c-0.333,0.215-0.666,0.43-0.988,0.644
		c-0.022,0.021-0.032,0.032-0.054,0.043c-1.707,0.977-3.232,1.16-4.219,1.149c-2.18-0.021-3.812-0.837-4.8-1.514
		c-1.138-0.784-1.782-1.45-1.954-1.643c-0.408-0.451-0.934-1.074-1.31-1.557c-0.322-0.43-0.72-1.031-0.988-1.493
		c-0.816-1.45-1.02-1.826-1.868-3.93c-0.043-0.118-0.698-1.932-1.02-3.232c-0.129-0.558-0.247-1.063-0.354-1.557
		c-0.236-1.074-0.408-2.073-0.58-3.393c-0.021-0.183-0.043-0.365-0.064-0.537c0.118-0.043,0.246-0.076,0.375-0.107
		c7.892-2.083,18.919-0.902,20.562-0.709c0.129,0.011,0.204,0.021,0.204,0.021C269.856,822.092,270.887,824.518,271.102,826.677z"/>
	<g>
		<path style="fill:#4B4B5E;stroke:#F23D3D;stroke-width:3.2211;stroke-miterlimit:10;" d="M267.223,814.924
			c0.01,0.783-0.01,1.567-0.051,2.329c-0.485,10.07-4.68,18.028-9.864,18.213c-5.298,0.186-9.719-7.833-10.225-18.213
			c-0.031-0.536-0.051-1.082-0.051-1.629c-0.093-11.152,4.349-20.346,9.926-20.542C262.534,794.886,267.131,803.771,267.223,814.924
			z"/>
	</g>
</g>
<g style="display:inline;">
	<g>
		<path style="fill:#E1FBFF;" d="M382.365,865.612l-0.051-0.08l-0.05-0.083l-0.048-0.086l-0.047-0.088l-0.044-0.09l-0.041-0.092
			L382.045,865l-0.035-0.094l-0.031-0.094l-0.028-0.094l-0.024-0.094l-0.02-0.093l-0.016-0.092l-0.012-0.09l-0.009-0.088
			l-0.006-0.085l0.006,0.085l0.009,0.088l0.012,0.09l0.016,0.092l0.02,0.093l0.024,0.094l0.028,0.094l0.031,0.094l0.035,0.094
			l0.038,0.093l0.041,0.092l0.044,0.09l0.047,0.088l0.048,0.086l0.05,0.083L382.365,865.612"/>
	</g>
</g>
<g style="display:inline;">
	<path style="fill:#F23D3D;" d="M164.535,841.433c0-6.67-5.798-12.128-12.885-12.128H77.027c-7.087,0-12.884,5.457-12.884,12.128
		c0,6.67,5.798,12.128,12.884,12.128h74.623C158.737,853.56,164.535,848.103,164.535,841.433z"/>
</g>
</svg>
