<?xml version="1.0" encoding="utf-8"?>
<!-- Generator: Adobe Illustrator 27.5.0, SVG Export Plug-In . SVG Version: 6.00 Build 0)  -->
<svg version="1.1" id="Layer_1" xmlns="http://www.w3.org/2000/svg" xmlns:xlink="http://www.w3.org/1999/xlink" x="0px" y="0px"
	 viewBox="0 0 451 451" style="enable-background:new 0 0 451 451;" xml:space="preserve">
<g>
	<g>
		<polygon style="fill:#CE9167;" points="403.569,308.77 225.3,411.694 47.258,309.293 225.527,205.783 		"/>
		<polygon style="opacity:0.5;fill:#E0C1AD;" points="292.856,368.873 231.749,404.956 72.434,313.548 133.542,276.879 		"/>
		<polygon style="opacity:0.5;fill:#E0C1AD;" points="348.457,324.222 287.349,360.304 128.035,268.897 189.142,232.227 		"/>
		<polygon style="fill:#D1AD99;" points="47.258,309.293 47.258,318.79 225.3,421.191 225.3,411.694 		"/>
		<polygon style="fill:#E0C1AD;" points="403.569,318.267 403.742,308.657 225.3,411.694 225.3,421.191 		"/>
	</g>
	<g>
		<g>
			<polygon style="fill:#E5D6DC;" points="54.208,312.979 226.177,213.799 226.177,37.513 54.208,136.782 			"/>
			<polygon style="fill:#D3BCC5;" points="54.208,136.782 47.258,133.097 47.258,309.293 54.208,312.979 			"/>
			<polygon style="fill:#F2E7EB;" points="226.177,29.809 226.177,37.513 54.208,136.782 47.258,133.097 			"/>
		</g>
		<g>
			<polygon style="fill:#E5D6DC;" points="396.792,136.146 403.742,132.46 403.742,308.657 396.792,312.343 			"/>
			<polygon style="fill:#9CBAF7;" points="396.792,312.343 226.177,213.799 226.177,37.513 396.792,136.146 			"/>
			<polygon style="fill:#F2E7EB;" points="226.177,29.809 219.509,33.658 396.792,136.146 403.742,132.46 			"/>
		</g>
	</g>
	<g>
		<g>
			<polygon style="fill:#DDCAD2;" points="253.749,66.041 253.749,173.172 304.653,202.477 304.653,209.726 247.2,176.64 
				247.2,62.26 			"/>
			<g>
				<g>
					<polygon style="fill:#FFFFFF;" points="259.41,69.309 304.653,95.346 304.653,193.374 259.41,167.337 					"/>
					<polygon style="fill:#E5D6DC;" points="258.836,68.978 258.836,167.002 304.653,193.374 304.653,202.477 253.749,173.172 
						253.749,66.041 					"/>
					<polygon style="fill:#F7F0F3;" points="258.836,68.978 261.134,70.301 261.134,165.964 304.653,191.009 304.653,193.374 
						258.836,167.002 					"/>
				</g>
			</g>
		</g>
		<path style="fill:#F7F0F3;" d="M304.653,199.907l-51.116-29.451l-6.332,3.138c0,0-1.261,0.6-2.571,1.313
			c-1.309,0.712-1.944,2.158-2.021,4.247c1.007,0.652,44.331,25.589,57.391,33.122c0.178-1.734,4.648-3.14,4.648-3.14V199.907z"/>
		<path style="fill:#D3BCC5;" d="M300.005,212.275l4.648-2.526v-3.396c0,0-3.738,1.466-4.456,2.961
			C299.478,210.81,300.005,212.275,300.005,212.275z"/>
		<polygon style="fill:#D3BCC5;" points="258.836,68.978 261.134,70.301 261.134,165.964 258.836,167.002 		"/>
	</g>
	<polygon style="fill:#80A8E8;" points="158.801,204.505 140.427,215.113 140.427,120.696 158.801,110.088 	"/>
	<polygon style="fill:#80A8E8;" points="175.116,206.958 156.742,217.566 156.742,123.148 175.116,112.541 	"/>
	<polygon style="fill:#80A8E8;" points="142.728,199.246 124.355,209.853 124.355,153.042 142.728,142.434 	"/>
	<g>
		<g>
			<path style="fill:#9CBAF7;" d="M161.137,113.689c0-1.651-1.004-3.569-2.242-4.283c-0.471-0.272-0.906-0.328-1.267-0.206
				l-16.471,9.635l3.001,6.146l16.028-9.404C160.76,115.367,161.137,114.697,161.137,113.689z"/>
			<path style="fill:#628FD1;" d="M140.486,120.577c0,1.651,1.004,3.568,2.242,4.283c1.238,0.715,2.242-0.044,2.242-1.695
				c0-1.651-1.004-3.568-2.242-4.283C141.49,118.168,140.486,118.927,140.486,120.577z"/>
		</g>
		<path style="fill:#A5693D;" d="M167.697,140.436c-2.654-3.949-4.941-7.658-4.941-7.658l-2.938,1.734c0,0,2.356,3.666,4.768,7.767
			c1.591,2.705,2.765,3.189,3.83,2.582C169.275,144.371,169.694,143.406,167.697,140.436z"/>
		<path style="fill:#B77D4E;" d="M162.76,132.813c0.215,0.373-0.268,1.056-1.081,1.525c-0.812,0.469-1.645,0.547-1.861,0.173
			c-0.216-0.373,0.268-1.056,1.08-1.525C161.711,132.517,162.544,132.44,162.76,132.813z"/>
		<g>
			<path style="fill:#F4EEF0;" d="M160.851,133.839l-1.785-2.718c-2.785-4.258-2.927-4.171-5.22-2.69
				c-0.275,0.177-0.578,0.371-0.912,0.576c-0.792,0.486-1.498,0.939-2.135,1.348c-3.587,2.3-5.385,3.454-7.405,0.385l-0.725-1.103
				c-0.969-1.468-1.596-2.422-2.399-3.696c-0.52-0.827-0.696-1.492-0.554-2.093c0.21-0.885,1.065-1.4,2.056-1.998
				c0.327-0.198,0.679-0.41,1.041-0.653c0.214-0.146,0.509-0.09,0.655,0.126c0.146,0.216,0.091,0.51-0.127,0.656
				c-0.375,0.254-0.74,0.474-1.081,0.68c-0.839,0.507-1.504,0.909-1.622,1.407c-0.079,0.333,0.063,0.781,0.434,1.371
				c0.797,1.269,1.423,2.219,2.386,3.68l0.727,1.104c1.454,2.21,2.309,1.772,6.106-0.662c0.642-0.411,1.353-0.867,2.15-1.357
				c0.328-0.202,0.624-0.392,0.895-0.566c2.779-1.785,3.449-1.732,6.521,2.968l1.784,2.716L160.851,133.839z"/>
		</g>
	</g>
	<polygon style="opacity:0.5;fill:#E0C1AD;" points="356.086,297.708 315.608,320.511 278.548,299.114 319.027,276.312 	"/>
	<path style="fill:#A7DDE7;" d="M346.842,317.556c-3.758,0.022-8.471-0.566-12.339-2.996c-0.135-0.085-0.282-0.174-0.419-0.26
		c-11.614-7.262-29.734-17.061-47.149-27.085c-31.19-17.952-65.895-37.926-84.722-48.764c-1.543-0.888-2.992-1.722-4.311-2.482
		c-1.102-0.634-2.204-2.135-3.06-3.536c-0.945-1.547-1.59-2.972-1.59-2.972l-58.043,33.511c0,0,0.509,1.32,1.618,2.956
		c0.906,1.336,2.204,2.879,4.018,4.119c0.995,0.68,2.122,1.29,3.297,1.931c0.555,0.303,1.117,0.61,1.688,0.939
		c28.823,16.593,97.087,55.754,129.546,74.56c0.407,0.236,0.834,0.483,1.23,0.713c3.892,2.256,7.267,3.254,10.056,3.585
		c4.848,0.575,7.911-0.882,8.741-1.371l58.043-33.511C353.446,316.894,350.629,317.534,346.842,317.556z"/>
	<path style="fill:#A7DDE7;" d="M289.98,362.292c-3.758,0.022-8.471-0.566-12.339-2.996c-0.135-0.085-0.282-0.174-0.418-0.259
		c-11.614-7.262-29.734-17.062-47.149-27.085c-31.19-17.952-65.895-37.926-84.722-48.764c-1.543-0.888-2.992-1.723-4.311-2.482
		c-1.102-0.634-2.204-2.135-3.06-3.536c-0.945-1.547-1.59-2.972-1.59-2.972l-58.043,33.511c0,0,0.508,1.32,1.618,2.956
		c0.906,1.336,2.204,2.88,4.018,4.119c0.995,0.68,2.122,1.29,3.298,1.931c0.555,0.303,1.117,0.61,1.688,0.939
		c28.823,16.594,97.087,55.754,129.546,74.56c0.407,0.236,0.834,0.483,1.23,0.713c3.892,2.256,7.267,3.254,10.056,3.585
		c4.848,0.575,7.911-0.882,8.741-1.371l58.043-33.511C296.584,361.629,293.767,362.27,289.98,362.292z"/>
	<polygon style="opacity:0.5;fill:#7DD0DB;" points="330.685,312.085 315.608,320.511 278.548,299.114 293.315,290.862 	"/>
	<path style="opacity:0.5;fill:#7DD0DB;" d="M184.518,274.792c-5.112,4.103,3.425,9.779,10.113,12.704
		c10.552,4.616,19.321,1.895,31.546-5.029c16.15-9.148,29.557-13.211,12.069-21.434c-10.049-4.726-16.838-1.838-25.383,2.706
		C204.317,268.284,191.413,269.257,184.518,274.792z"/>
	<g>
		<path style="fill:#FFC9B6;" d="M230.863,157.097c0,0,3.529,6.923,5.424,9.941c1.896,3.017,1.982,4.535,1.293,8.272
			c-0.689,3.737-1.982,10.427-2.668,13.472c0.926,2.228,2.84,3.417,1.462,6.164c1.379,0,2.233,0.985,1.723,2.092
			c-1.551,3.372-5.075,4.01-7.234,2.976c-2.159-1.034-1.023-6.801-1.167-8.376c-0.217-2.384-0.436-8.159-1.25-12.537
			c-0.857-4.605,0.256-7.046,0.256-7.046l-4.34-11.643L230.863,157.097z"/>
		<path style="fill:#6D3215;" d="M198.728,264.94c0.262,4.104,1.251,9.682-0.353,9.729c-2.775-0.949-5.403-2.467-7.782-1.021
			c-2.495,1.517-2.677,3.807-2.082,6.071c0.831,1.068,2.4,2.689,4.596,3.75c3.087,1.491,7.011,2.287,8.368,2.492
			c1.985,1.19,4.774,2.125,6.835,1.044c2.121-1.113,3.185-2.046,2.557-4.395c-1.046-3.914-0.544-4.136,0.834-10.695
			C212.459,268.308,198.515,261.61,198.728,264.94z"/>
		<path style="fill:#2C1D1B;" d="M197.507,257.81c1.087-1.996,4.636-1.919,9.114-0.504c4.478,1.414,6.125,2.042,6.193,3.378
			c0.068,1.336,0.643,4.871-4.936,4.479c-5.578-0.393-9.687-3.444-10.057-4.714C197.452,259.178,197.507,257.81,197.507,257.81z"/>
		<path style="fill:#D6C9D4;" d="M221.418,169.019c4.959-0.643,9.827-2.026,13.494-5.341c-0.872-1.424-1.661-5.203-1.985-6.58
			c-1.198-5.091-2.343-9.016-6.671-12.143c-5.494-3.97-10.063,1.644-13.941,4.199c-0.019,0.022-0.053,0.032-0.07,0.056
			c-0.856,1.201-0.74,2.674-0.416,4.144c0.064,0.602,2.698,9.544,4.716,12.477C217.581,167.334,219.349,168.363,221.418,169.019z"/>
		<path style="fill:#FFB9A4;" d="M212.139,136.747c1.258,3.046,7.087,14.306,7.087,14.306l-13.273,6.65c0,0-0.42-9.381-3.06-15.704
			C200.252,135.675,212.139,136.747,212.139,136.747z"/>
		<path style="fill:#6D3215;" d="M242.016,263.04c1.373-6.307-0.162-17.144-1.591-20.539c-4.507,0-10.339,1.451-13.304,3.748
			c1.031,3.719,1.406,4.75,2.064,7.434c0.371,1.515,0.813,3.006,1.308,4.486c0.749,2.241,0.555,2.289-1.758,2.225
			c-3.514-0.096-6.77,0.577-6.779,4.502c-0.002,0.975,2.235,3.74,3.166,4.294c4.964,2.952,8.076,1.591,10.089,1.096
			c1.715,1.481,5.744,0.177,8.13-2.033C244.13,267.524,242.875,263.942,242.016,263.04z"/>
		<path style="fill:#3C89CE;" d="M205.118,188.931c0.861-2.258,1.274-3.012,3.674-3.145c2.487-0.137,4.987,0.361,7.512,0.134
			c3.703-0.332,7.129-1.376,10.582-2.675c1.39-0.523,3.602,6.571,4.008,10.057c0.56,4.821-0.057,6.577-0.774,11.161
			c1.867,4.578,3.424,13.052,0.887,19.303c3.812,4.277,8.051,11.504,10.068,17.135c2.628,7.338,2.258,16.216,2.322,18.677
			c0.197,4.09-10.624,3.637-13.701,0c-2.434-8.366-12.38-27.612-14.4-31.294c-2.791-5.09-3.927-8.692-6.537-13.876
			c-2.012-3.997-4.744-8.155-5.456-12.645C202.648,197.624,203.648,192.79,205.118,188.931z"/>
		<path style="fill:#45A0D8;" d="M200.747,194.896c1.362-2.485,20.833-4.479,20.584-4.356c0.97,3.853,6.419,14.378-1.797,18.744
			c-0.265,1.7-5.702,21.283-9.304,27.858c0.815,4.236,2.182,5.504,0.574,11.041c0.591,1.263,1.875,5.692,2.059,10.228
			c0.343,8.467-1.112,18.651-2.202,20.104c-2.435,3.242-12.062,1.945-12.285-3.845c-0.443-4.691-5.197-38.359-5.856-47.408
			C194.788,213.422,196.579,202.5,200.747,194.896z"/>
		<path style="fill:#3C89CE;" d="M225.744,194.21c0,0-2.756,4.498-11.901,5.607c-9.145,1.109-14.156-2.803-14.156-2.803l1.06-2.118
			c0,0,9.979,2.273,16.173-0.233c6.194-2.505,8.198-3.023,8.198-3.023L225.744,194.21z"/>
		<path style="fill:#3C89CE;" d="M198.19,189.418c-0.784-1.543,4.32-2.818,4.32-2.818l1.326,3.602
			C203.835,190.201,199.685,192.362,198.19,189.418z"/>
		<path style="fill:#F7F4F9;" d="M198.526,155.873c1.91-1.201,14.19-11.186,22.104-10.104c4.983,0.681,7.42,10.528,7.902,15.666
			c0.311,3.314-0.105,18.821,0.209,21.564c0.4,0.677,1.426,2.347,0.233,3.266c1.512,1.544,0.41,2.35-1.086,3.936
			c-1.553,1.648-11.235,6.837-15.701,6.837c-6.221,0-10.357-0.086-11.975-1.293c-1.125-0.84-0.568-2.612,0.449-3.468
			c-0.575-3.257-4.525-8.431-5.077-11.471c-1.134-6.24-2.914-10.684-3.233-17.056C192.1,158.724,194.917,158.143,198.526,155.873z"
			/>
		<path style="fill:#D6C9D4;" d="M219.225,146.1c0,0-0.357,1.242-3.865,3.04c-3.508,1.798-10.105,3.552-10.105,3.552v-0.751
			c0,0,3.685-2.456,7.461-4.343c3.776-1.887,4.969-1.695,4.969-1.695L219.225,146.1z"/>
		<path style="fill:#FFC9B6;" d="M198.08,133.102c0.772-3.768,2.487-6.978,6.192-7.87c3.518-0.847,7.5,0.669,9.843,3.58
			c2.876,3.575,1.998,7.506-0.541,10.981c-1.503,2.058-3.795,3.891-5.379,4.723c-2.073,1.089-6.126,2.724-8.447-0.543
			C197.611,140.966,197.379,136.524,198.08,133.102z"/>
		<path style="fill:#6D3215;" d="M198.614,127.125c1.302-0.226,0.791-1.424,1.964-2.106c2.591-1.506,6.446-1.841,9.323-1.238
			c5.881,1.233,9.382,4.235,7.06,8.933c0.451,2.414-1.539,8.624-1.051,11.844c-4.302,0.989-7.484-1.189-8.584-5.282
			c-2.399,0.41-6.855-4.206-5.674-6.318C197.275,133.963,197.085,127.39,198.614,127.125z"/>
		<path style="fill:#FFC9B6;" d="M200.977,135.827c0,0,1.865-2.543,3.507,0.628c1.356,2.618-1.987,3.569-1.987,3.569
			L200.977,135.827z"/>
		<path style="fill:#3C89CE;" d="M205.815,131.999c0,0-4.361,3.888-11.286-0.607c-6.926-4.496-0.823-9.361,3.98-8.749
			c4.803,0.613,7.306,2.867,7.306,2.867V131.999z"/>
		<path style="fill:#45A0D8;" d="M198.614,127.125c0.552-6.131,9.326-9.599,16.039-4.86c3.672,2.592,5.67,8.1,2.113,13.97
			C215.957,138.597,200.072,137.817,198.614,127.125z"/>
		<path style="fill:#3C89CE;" d="M210.696,121.554c-0.229,0.478,0.303,1.209,1.187,1.633c0.885,0.423,1.787,0.379,2.017-0.1
			c0.229-0.479-0.302-1.21-1.187-1.633C211.828,121.031,210.925,121.076,210.696,121.554z"/>
		<path style="fill:#FFC9B6;" d="M187.26,160.537c0.488,1.874,0.109,3.263-1.17,4.179c-1.279,0.916-5.005-0.077-4.083-2.44
			c-0.935-0.709-0.134-1.611,0.232-2.569c-0.392-1.335,0.44-2.586,1.301-2.401C185.949,157.824,186.772,158.663,187.26,160.537z"/>
		<path style="fill:#3C89CE;" d="M208.226,238.419c0,0-2.183,1.427-4.299,1.07c-2.116-0.357-2.95-1.545-2.95-1.545
			s2.234-0.238,3.625,0C205.992,238.181,208.226,238.419,208.226,238.419z"/>
		<path style="fill:#3C89CE;" d="M207.417,236.474c0,0-3.018-2.141-4.398-2.457c-1.379-0.315-2.459-0.499-2.459-0.499
			s1.769,1.386,3.069,2.033C204.929,236.196,207.417,236.474,207.417,236.474z"/>
		<path style="fill:#45A0D8;" d="M227.287,163.229l2.409,8.145c0,0,0.084,8.863-0.389,11.842c0.472,1.137,1.253,1.378,0.389,2.714
			c1.798,0.066,1.196,1.837,0.334,3.267c-1.761,2.919-4.311,4.433-7.201,5.961c-2.89,1.528-12.373,3.852-16.012,2.943
			c-3.639-0.908-8.106-1.955-7.788-3.702c0.318-1.747,0.271-2.32,0.271-2.32l-1.111-2.662c0,0,3.892,1.608,8.628-0.659
			c2.872-1.375,8.115-7.93,6.706-18.714C219.08,168.469,227.287,163.229,227.287,163.229z"/>
		<path style="fill:#45A0D8;" d="M216.614,171.171c-0.299-0.189-1.938-7.994-4.761-13.468c-2.283-4.426-4.936-6.399-6.535-6.132
			c-2.219,0.37-2.808,2.11-2.808,2.11s2.655-0.654,5.206,2.519c2.55,3.174,5.96,13.809,5.998,15.881
			C213.751,174.153,216.614,171.171,216.614,171.171z"/>
		<path style="fill:#45A0D8;" d="M216.942,146.598c0.696,0.593,2.49,1.595,4.557,6.428c1.327,3.103,4.094,12.748,4.094,12.748
			l1.997-1.39c0,0-1.768-7.057-3.773-11.734c-2.005-4.677-3.707-6.271-5.025-7.105c-0.707-0.448-1.858-0.178-2.3,0.166
			C216.665,146.182,216.942,146.598,216.942,146.598z"/>
		<path style="fill:#3C89CE;" d="M215.36,194.283c0,0-3.038,1.644-5.799,1.545c-2.744-0.099-5.392-1.461-5.392-1.461
			s3.434-0.484,5.021-0.233C210.777,194.383,215.36,194.283,215.36,194.283z"/>
		<path style="fill:#FFC9B6;" d="M160.906,141.692c-1.073-0.946-3.866-5.085-0.486-6.245c0.311,0.298,0.643,1.191,1.551,1.191
			c0.788,0,1.939-0.82,2.371-1.348c0,0-0.594-0.941-0.833-1.324c0.189-0.076,1.795-1.031,2.817-0.336
			c1.235,0.841,2.354,3.217,2.735,5.499c0.204,1.222,4.341,9.262,5.536,10.516c2.717,2.853,3.379,5.488,3.379,5.488
			s10.558,2.54,14.147,4.21c2.929,1.362,4.398,3.133,4.398,3.133l-1.237,12.021c0,0-3.963-2.307-9.89-4.424
			c-1.021-0.365-6.942-1.745-11.518-5.568c-1.96-0.658-1.73-0.829-2.024-2.008c-2.004-1.904-1.951-3.097-4.208-8.909
			c-1.238-3.189-2.838-10.52-2.838-10.52C163.194,143.309,162.738,143.309,160.906,141.692z"/>
		<path style="fill:#D6C9D4;" d="M187.466,156.994c2.122,0.193,4.599-0.189,5.058,0.74c3.406-1.718,7.118-2.679,9.986-0.031
			c4.398,4.062,5.491,14.778,0.51,19.25c-3.28,2.945-6.012,2.165-9.877-2.238c-1.523-0.614-5.284-1.839-8.625-3.352
			C181.243,166.094,183.543,159.976,187.466,156.994z"/>
	</g>
	<g>
		<g>
			<path style="fill:#373951;" d="M312.155,278.131v2.209c0,1.179,0.965,2.144,2.144,2.144c1.18,0,2.145-0.965,2.145-2.144v-2.209
				H312.155z"/>
			<path style="fill:#474864;" d="M316.443,278.131c0,0.672-0.96,1.217-2.144,1.217c-1.184,0-2.144-0.545-2.144-1.217
				c0-0.672,0.96-1.217,2.144-1.217C315.483,276.914,316.443,277.459,316.443,278.131z"/>
			<path style="fill:#E2D5DA;" d="M315.632,277.942c0,0.418-0.597,0.756-1.333,0.756c-0.736,0-1.333-0.339-1.333-0.756
				c0-0.418,0.597-0.757,1.333-0.757C315.035,277.185,315.632,277.524,315.632,277.942z"/>
			<path style="fill:#FFFFFF;" d="M315.632,277.942v-69.131c0-0.733-0.6-1.333-1.333-1.333c-0.733,0-1.333,0.6-1.333,1.333v69.131
				H315.632z"/>
		</g>
		<g>
			<path style="fill:#373951;" d="M285.154,296.233l-0.534,2.144c-0.285,1.145,0.418,2.314,1.563,2.599
				c1.145,0.285,2.314-0.418,2.599-1.563l0.534-2.143L285.154,296.233z"/>
			<path style="fill:#474864;" d="M289.315,297.269c-0.162,0.652-1.226,0.949-2.375,0.663c-1.149-0.286-1.949-1.047-1.787-1.699
				c0.162-0.652,1.226-0.949,2.375-0.663C288.677,295.856,289.477,296.617,289.315,297.269z"/>
			<path style="fill:#F4EEF0;" d="M288.371,297.007c-0.087,0.348-0.653,0.506-1.266,0.353c-0.612-0.153-1.039-0.558-0.952-0.906
				c0.087-0.348,0.653-0.506,1.266-0.353C288.031,296.254,288.458,296.659,288.371,297.007z"/>
		</g>
		<g>
			<path style="fill:#F4EEF0;" d="M327.65,183.296c2.305-0.904,5.098-0.469,8.088,1.258l6.939,3.772
				c6.292,3.632,8.32,10.148,5.874,18.809l-0.21,0.663c0.864-0.221,1.732-0.426,2.602-0.621c2.457-9.397-0.042-16.796-7.105-20.874
				l-6.939-3.772c-3.621-2.091-7.115-2.577-10.1-1.407c-3.273,1.282-5.801,4.533-7.308,9.397l-33.339,105.934
				c0.711,0.31,1.219-0.023,2.218,0.553l33.346-105.792C323.009,187.048,325.06,184.309,327.65,183.296z"/>
		</g>
		<g>
			<polygon style="fill:#E5D6DC;" points="317.262,289.516 288.349,272.823 299.842,266.187 328.756,282.88 			"/>
			<polygon style="fill:#D3BCC5;" points="288.349,272.823 288.349,275.419 317.262,292.112 317.262,289.516 			"/>
			<polygon style="fill:#C1A7B1;" points="328.756,282.88 328.756,285.476 317.262,292.112 317.262,289.516 			"/>
		</g>
		<g>
			<polygon style="fill:#E5D6DC;" points="323.009,271.277 294.095,254.584 305.589,247.948 334.503,264.641 			"/>
			<polygon style="fill:#D3BCC5;" points="294.095,254.584 294.095,257.179 323.009,273.873 323.009,271.277 			"/>
			<polygon style="fill:#C1A7B1;" points="334.503,264.641 334.503,267.237 323.009,273.873 323.009,271.277 			"/>
		</g>
		<g>
			<polygon style="fill:#E5D6DC;" points="328.756,252.03 299.842,235.336 311.336,228.701 340.25,245.394 			"/>
			<polygon style="fill:#D3BCC5;" points="299.842,235.336 299.842,237.932 328.756,254.626 328.756,252.03 			"/>
			<polygon style="fill:#C1A7B1;" points="340.25,245.394 340.25,247.99 328.756,254.626 328.756,252.03 			"/>
		</g>
		<g>
			<polygon style="fill:#E5D6DC;" points="332.355,235.063 303.441,218.37 324.892,206.084 353.806,222.778 			"/>
			<polygon style="fill:#D3BCC5;" points="303.441,218.37 303.441,220.965 332.355,237.659 332.355,235.063 			"/>
			<polygon style="fill:#C1A7B1;" points="353.806,222.778 353.806,225.374 332.355,237.659 332.355,235.063 			"/>
		</g>
		<g>
			<path style="fill:#373951;" d="M313.972,312.854l-0.534,2.144c-0.285,1.145,0.418,2.314,1.563,2.599
				c1.144,0.285,2.314-0.418,2.599-1.563l0.534-2.144L313.972,312.854z"/>
			<path style="fill:#474864;" d="M318.133,313.89c-0.162,0.652-1.226,0.949-2.375,0.663c-1.149-0.286-1.949-1.047-1.787-1.699
				c0.162-0.652,1.226-0.949,2.375-0.663C317.496,312.477,318.296,313.238,318.133,313.89z"/>
			<path style="fill:#F4EEF0;" d="M317.19,313.628c-0.087,0.348-0.653,0.506-1.266,0.353c-0.612-0.153-1.039-0.558-0.952-0.906
				c0.087-0.348,0.653-0.506,1.266-0.353C316.85,312.875,317.276,313.28,317.19,313.628z"/>
		</g>
		<path style="fill:#F4EEF0;" d="M344.996,187.036c-0.502,0.601-1.003,1.202-1.499,1.808c5.637,3.716,7.389,10.022,5.054,18.291
			L315.026,312.98c0.718,0.295,1.452,0.303,2.146,0.702l33.614-105.881C353.372,198.645,351.312,191.333,344.996,187.036z"/>
		<g>
			<path style="fill:#373951;" d="M342.269,296.455v2.209c0,1.179,0.965,2.144,2.144,2.144c1.18,0,2.145-0.965,2.145-2.144v-2.209
				H342.269z"/>
			<ellipse style="fill:#474864;" cx="344.414" cy="296.455" rx="2.144" ry="1.217"/>
			<path style="fill:#FFFFFF;" d="M345.747,296.266c0,0.418-0.597,0.756-1.333,0.756c-0.736,0-1.333-0.339-1.333-0.756
				c0-0.418,0.597-0.757,1.333-0.757C345.15,295.509,345.747,295.848,345.747,296.266z"/>
			<path style="fill:#FFFFFF;" d="M345.747,296.266v-69.131c0-0.733-0.6-1.333-1.333-1.333c-0.733,0-1.333,0.6-1.333,1.333v69.131
				H345.747z"/>
		</g>
		<path style="fill:#4B4B7F;" d="M345.446,229.793c0,0.5-0.304,1.081-0.679,1.298c-0.375,0.217-0.679-0.013-0.679-0.514
			c0-0.5,0.304-1.081,0.679-1.298C345.142,229.063,345.446,229.293,345.446,229.793z"/>
	</g>
	<path style="opacity:0.5;fill:#7DD0DB;" d="M136.938,300.478c9.623,0,17.423,3.947,17.423,8.816c0,4.869-7.8,8.816-17.423,8.816
		c-9.622,0-17.422-3.947-17.422-8.816C119.516,304.424,127.316,300.478,136.938,300.478z"/>
	<path style="fill:#80A8E8;" d="M167.969,307.292c-2.401-1.468-5.408-2.039-8.431-1.991c-0.026-0.729-0.276-1.496-0.738-2.136
		c-2.968-4.11-10.195-3.526-14.433-2.623c-4.344,0.926-9.435,3.233-10.078,8.216c-0.001,0.009,0.001,0.018-0.001,0.027
		c-0.819,0.734-1.491,1.628-1.884,2.765c-0.76,2.198-0.128,4.443,1.735,5.852c3.79,2.868,10.857,2.581,16.054,0.671
		c1.153,0.827,2.855,1.449,3.605,1.654c4.785,1.312,10.572,0.307,14.374-2.987C171.341,313.993,171.811,309.64,167.969,307.292z"/>
	<path style="opacity:0.5;fill:#7DD0DB;" d="M182.645,318.121c11.178,0,20.238,4.584,20.238,10.24c0,5.655-9.06,10.24-20.238,10.24
		c-11.177,0-20.237-4.585-20.237-10.24C162.408,322.705,171.468,318.121,182.645,318.121z"/>
	<g>
		<path style="fill:#FFE5D9;" d="M119.529,279.995l1.642,28.314c0,4.411,7.067,7.987,15.785,7.987
			c8.718,0,15.785-3.576,15.785-7.987l1.642-28.314H119.529z"/>
		<g>
			<path style="fill:#EDBCAB;" d="M143.93,300.951c-0.939,0-1.917-0.083-2.932-0.251c-9.738-1.611-16.841-9.799-17.139-10.147
				c-0.226-0.265-0.195-0.662,0.069-0.89c0.265-0.227,0.662-0.198,0.89,0.07c0.07,0.081,7.111,8.188,16.386,9.723
				c3.623,0.6,6.738,0.041,9.002-1.617c2.263-1.658,3.679-4.368,4.209-8.06c0.775-5.411-1.527-11.069-1.551-11.126
				c-0.133-0.322,0.021-0.691,0.343-0.824c0.319-0.133,0.69,0.018,0.824,0.341c0.101,0.243,2.46,6.027,1.633,11.787
				c-0.579,4.039-2.165,7.033-4.712,8.898C149.059,300.243,146.666,300.951,143.93,300.951z"/>
		</g>
		<path style="fill:#EDBCAB;" d="M155.207,282.224l-0.65-0.75c0,0-9.212-6.281-17.618-6.281c-8.363,0-17.585,6.281-17.585,6.281
			l-0.684,0.75v2.387c0.205,5.015,8.308,9.07,18.269,9.07c9.937,0,18.06-4.071,18.302-9.07L155.207,282.224z"/>
		<path style="fill:#F9D2C2;" d="M136.939,272.98c-10.09,0-18.269,4.138-18.269,9.244c0,5.105,8.179,9.244,18.269,9.244
			c10.09,0,18.268-4.139,18.268-9.244C155.207,277.118,147.028,272.98,136.939,272.98z"/>
		<path style="fill:#FFE5D9;" d="M119.529,279.995c0,0.483,0.1,1.741,0.11,1.865c0.387,4.683,8.013,8.42,17.364,8.42
			c8.861,0,16.157-3.358,17.229-7.694l0.15-2.591C154.343,279.676,119.529,279.995,119.529,279.995z"/>
		<path style="fill:#FFF4F0;" d="M136.956,271.177c-9.625,0-17.427,3.947-17.427,8.818c0,4.87,7.802,8.818,17.427,8.818
			c9.624,0,17.427-3.948,17.427-8.818C154.382,275.125,146.58,271.177,136.956,271.177z"/>
		<g>
			<path style="fill:#F9D2C2;" d="M136.956,274.831c8.005,0,14.638,2.814,15.958,6.51c0.156-0.438,0.255-0.886,0.255-1.346
				c0-4.34-7.259-7.857-16.213-7.857c-8.955,0-16.214,3.517-16.214,7.857c0,0.46,0.098,0.908,0.255,1.346
				C122.317,277.645,128.95,274.831,136.956,274.831z"/>
			<path style="fill:#80A8E8;" d="M136.956,287.852c8.005,0,14.638-2.814,15.958-6.51c-1.32-3.697-7.953-6.51-15.958-6.51
				c-8.005,0-14.639,2.814-15.959,6.51C122.317,285.038,128.95,287.852,136.956,287.852z"/>
		</g>
	</g>
	<path style="fill:#80A8E8;" d="M180.601,261.957c-5.486-4.042-18.644,0.188-19.5,4.788c-1.272,6.837,10.252,6.74,14.205,5.846
		C180.002,271.53,186.698,266.449,180.601,261.957z"/>
	<path style="fill:#80A8E8;" d="M184.736,257.732c-3.023-2.228-10.276,0.104-10.747,2.639c-0.701,3.768,5.65,3.715,7.829,3.222
		C184.406,263.008,188.096,260.208,184.736,257.732z"/>
	<g>
		<path style="fill:#EDBCAB;" d="M200.933,325.088l-0.65-0.75c0,0-9.212-6.281-17.618-6.281c-8.363,0-17.585,6.281-17.585,6.281
			l-0.684,0.75v2.387c0.205,5.015,8.308,9.07,18.269,9.07c9.937,0,18.06-4.071,18.302-9.07L200.933,325.088z"/>
		<path style="fill:#FFF4F0;" d="M182.665,315.844c-10.09,0-18.269,4.138-18.269,9.244c0,5.105,8.179,9.244,18.269,9.244
			c10.089,0,18.268-4.139,18.268-9.244C200.933,319.982,192.754,315.844,182.665,315.844z"/>
		<g>
			<path style="fill:#EDBCAB;" d="M182.681,317.288c9.061,0,16.429,3.623,16.805,8.161c0.01-0.121,0.036-0.239,0.036-0.361
				c0-4.707-7.54-8.522-16.841-8.522c-9.302,0-16.842,3.815-16.842,8.522c0,0.122,0.026,0.24,0.036,0.361
				C166.252,320.911,173.62,317.288,182.681,317.288z"/>
			<path style="fill:#F9D2C2;" d="M182.681,333.61c9.061,0,16.429-3.623,16.805-8.161c-0.377-4.538-7.745-8.161-16.805-8.161
				c-9.061,0-16.429,3.623-16.806,8.161C166.252,329.987,173.62,333.61,182.681,333.61z"/>
		</g>
	</g>
	<g>
		<polygon style="fill:#6D3215;" points="176.912,317.352 170.03,313.378 165.904,315.76 165.921,315.252 163.312,315.58 
			163.312,317.257 170.103,321.178 170.103,317.352 		"/>
		<rect x="189.295" y="327.221" style="fill:#C9905D;" width="2.847" height="1.669"/>
		<path style="fill:#C9905D;" d="M191.08,327.45c-2.013-1.36-4.951-2.002-8.142-3.708c-3.057-1.634-3.969-3.663-4.042-3.832
			c0.036-0.142,0.049-0.288,0.037-0.434l-2.02-2.124h-6.809v3.826l0.724,0.418c0.72,0.416,1.593,0.705,2.479,0.762
			c0.434,0.028,1.556,0.081,2.108,0.194c1.286,0.263,3.737,0.895,5.803,2.184c2.954,1.842,4.065,3.539,6.422,4.701
			c2.113,1.042,3.738,0.512,4.029,0.34C191.917,329.629,192.884,328.67,191.08,327.45z"/>
		<polygon style="fill:#7F3B1D;" points="170.03,311.701 163.312,315.58 170.103,319.501 176.821,315.622 		"/>
		<path style="fill:#E2AC71;" d="M191.08,325.747c-2.013-1.361-4.951-2.002-8.142-3.708c-2.421-1.295-3.504-2.85-3.885-3.525
			c-0.069-0.121-0.105-0.393-0.125-0.614c0-0.083-0.095-0.517-0.143-0.623c-0.201-0.443-0.611-0.874-1.239-1.237l-0.724-0.418
			l-6.718,3.879l0.724,0.418c0.856,0.494,1.931,0.757,2.976,0.793c0.117,0.004,1.041,0.021,1.566,0.127
			c1.273,0.258,3.757,0.889,5.848,2.193c2.954,1.842,4.065,3.539,6.422,4.701c2.113,1.042,3.738,0.512,4.029,0.34
			C191.917,327.926,192.884,326.967,191.08,325.747z"/>
		<polygon style="fill:#6D3215;" points="164.353,314.979 170.876,318.594 165.087,314.555 		"/>
		<polygon style="fill:#6D3215;" points="167.171,313.344 173.695,316.958 167.906,312.92 		"/>
		<polygon style="fill:#6D3215;" points="165.781,314.155 172.305,317.769 166.516,313.73 		"/>
		<polygon style="fill:#6D3215;" points="168.64,312.504 175.168,316.121 169.379,312.082 		"/>
	</g>
	<g>
		<polygon style="fill:#D3BCC5;" points="282.449,82.568 284.747,83.891 284.747,179.283 282.449,180.321 		"/>
		<polygon style="fill:#E5D6DC;" points="282.449,82.568 279.316,80.765 279.316,179.192 282.449,181.451 		"/>
	</g>
</g>
</svg>
