<?xml version="1.0" encoding="utf-8"?>
<!-- Generator: Adobe Illustrator 27.5.0, SVG Export Plug-In . SVG Version: 6.00 Build 0)  -->
<svg version="1.1" xmlns="http://www.w3.org/2000/svg" xmlns:xlink="http://www.w3.org/1999/xlink" x="0px" y="0px"
	 viewBox="0 0 1100 800" style="enable-background:new 0 0 1100 800;" xml:space="preserve">
<g id="Background">
	<rect style="fill:#FFFFFF;" width="1100" height="800"/>
</g>
<g id="Shadow">
	<g>
		<path style="fill:#F1F2F2;" d="M521.964,644.118c-28.193,0.084-56.385,0.762-84.528,3.892c-10.611,1.18-21,3.776-31.635,4.823
			c-21.244,2.092-42.107,5.993-63.426,7.793c-17.168,1.449-34.408,2.305-51.526,4.143c-16.049,1.724-33.816,1.326-49.742-1.522
			c-11.79-2.109-23.633-3.296-35.225-6.682c-12.967-3.789-27.055-6.498-40.565-6.4c-19.266,0.139-38.028,0.155-56.466,6.845
			c-6.472,2.348-14.395,6.209-19.31,11.137c-11.251,11.282-12.774,39.432-1.54,51.133c18.921,19.693,59.305,27.42,85.827,27.785
			c29.063,0.4,57.296-1.758,86.401-3.026c27.045-1.179,54.023-2.856,81.113-2.797c55.328,0.121,110.664,0,165.893-3.696
			c51.888-3.472,103.907-2.28,155.909-2.28c53.326,0,106.291,0.419,159.233,7.506c23.067,3.088,46.568,4.169,69.75,6.332
			c20.762,1.938,40.714-0.038,61.394-1.829c17.365-1.504,34.616-5.964,50.391-13.503c12.487-5.968,34.749-24.507,38.579-38.752
			c10.736-39.935-151.3-38.975-176.179-38.885c-27.831,0.101-55.884,1.016-83.693-0.045c-11.698-0.446-23.224-2.733-34.641-5.238
			c-11.372-2.495-22.83-1.861-34.362-2.91c-48.092-4.374-96.291-3.734-144.536-3.734
			C553.379,644.209,537.671,644.071,521.964,644.118z"/>
	</g>
</g>
<g id="Object">
	<g>
		<g>
			<g>
				<path style="fill:#EAC1A4;" d="M528.227,298.538c0.081,2.935-0.129,5.862-0.35,8.786c-4.333-0.653-8.657-1.353-12.963-2.146
					c0.211-0.77,0.424-1.534,0.641-2.28c1.4-4.821,4.336-11.13,4.102-16.168c-0.044-0.944-3.058-9.237-2.836-9.367
					c0.018-0.012,1.818-1.267,1.818-1.267l1.249,1.818l1.534,0.275l-2.024-6.207l7.215-1.893l6.303,5.912
					c-1.585,5.19-4.548,10.081-4.865,15.568C527.917,293.89,528.163,296.214,528.227,298.538z"/>
			</g>
		</g>
		<path style="fill:#145566;" d="M471.185,359.35c-1.2-1.997,34.546-24.393,34.546-24.393l12.75-44.21h11.717l-4.935,53.646
			l-43.188,51.65L471.185,359.35z"/>
	</g>
	<g>
		<g>
			<g>
				<g>
					<path style="fill:#EAC1A4;" d="M404.912,683.064c-2.647,0.176-5.068-0.754-7.633-1.043c0.122-9.061,1.104-17.75,3.056-26.696
						c3.989,4.429,7.348,1.854,7.213,10.175C407.504,668.193,404.393,678.965,404.912,683.064z"/>
					<path style="fill:#1A3151;" d="M396.7,677.514c-3.01-1.077-3.689,6.111-3.712,7.801c-0.014,1.016,0.106,2.051-0.152,3.034
						c-0.284,1.081-0.997,1.99-1.693,2.865c-1.457,1.832-2.914,3.664-4.372,5.496c-0.655,0.824-1.322,1.667-1.673,2.659
						c-0.87,2.459,0.567,5.374,2.895,6.551c8.078,4.081,15.458-5.8,17.207-12.324c0.268-1,0.464-2.018,0.659-3.034
						c0.404-2.103,1.996-6.689,1.161-8.743c-0.974-2.397-3.924-0.66-5.857-1.564C399.371,679.416,397.917,677.951,396.7,677.514z"/>
				</g>
				<path style="fill:#E3E4E5;" d="M454.091,533.76c-7.531,20.503-16.221,40.558-21.178,62.021
					c-6.122,26.514-15.994,52.37-21.06,78.942c-3.273,0.106-6.555-0.033-9.807-0.417c-3.729-0.44-9.647-1.446-10.993-5.518
					c-0.688-2.081,0.041-5.466,0.146-7.628c0.336-6.924,0.831-13.841,1.34-20.755c1.441-19.56,2.428-39.36,6.026-58.643
					c3.785-20.286,7.409-40.641,10.739-60.923c1.721-10.483,3.841-20.901,6.448-31.2c0.672-2.654,7.668-30.005,9.041-29.787
					c16.301,2.594,31.55,7.992,45.746,16.411c1.38,0.818,2.711,1.793,3.191,3.25c0.48,1.457,0.045,2.712-0.4,4.034
					c-4.243,12.608-9.899,24.431-14.423,36.989C457.335,524.907,455.738,529.276,454.091,533.76z"/>
			</g>
			<g>
				<g>
					<path style="fill:#EAC1A4;" d="M455.511,681.592c2.475,0.955,5.063,0.787,7.598,1.275c2.578-8.687,4.225-17.275,5.022-26.397
						c-5.126,3.042-7.568-0.415-9.912,7.57C457.459,666.624,457.225,677.833,455.511,681.592z"/>
					<path style="fill:#1A3151;" d="M465.7,680.251c0.006,4.913,3.873,10.203,6.013,14.622c0.252,0.52,0.509,1.06,0.519,1.638
						c0.016,0.858-0.509,1.62-1.011,2.315c-0.697,0.966-1.455,1.98-2.565,2.414c-1.09,0.427-2.314,0.213-3.457-0.038
						c-1.913-0.42-3.807-0.927-5.673-1.52c-0.465-0.148-0.94-0.307-1.319-0.614c-0.449-0.364-0.719-0.898-0.976-1.416
						c-1.319-2.656-2.442-4.542-2.371-7.501c0.074-3.057,0.46-6.224-0.099-9.253c-0.276-1.469-0.643-3.348,0.616-4.155
						c0.973-0.624,2.755,0.235,3.814,0.408c1.869,0.305,3.597,0.189,5.318,1.171c0.351,0.2,0.692,0.44,0.908,0.781
						C465.637,679.451,465.699,679.842,465.7,680.251z"/>
				</g>
				<path style="fill:#E3E4E5;" d="M452.962,524.419c1.092,21.815,3.425,43.547,1.773,65.513
					c-2.04,27.135-0.305,54.756-3.371,81.633c3.094,1.075,6.268,1.918,9.487,2.518c3.691,0.689,9.641,1.488,12.137-1.999
					c1.276-1.782,1.586-5.231,2.129-7.326c1.738-6.711,3.323-13.462,4.893-20.214c4.442-19.104,9.387-38.301,11.688-57.782
					c2.419-20.493,5.013-41.005,7.866-61.36c1.475-10.52,2.549-21.097,3.123-31.706c0.148-2.733,1.603-30.928,0.227-31.128
					c-16.335-2.371-32.499-1.753-48.557,2.063c-1.56,0.371-3.122,0.906-4.013,2.154c-0.891,1.248-0.85,2.576-0.818,3.97
					c0.301,13.299,2.185,26.269,2.769,39.605C452.497,515.001,452.723,519.647,452.962,524.419z"/>
			</g>
			<path style="fill:#145566;" d="M443.788,349.356c-0.266,0.09-0.53,0.184-0.792,0.284c-4.385,1.664-8.115,4.659-11.764,7.606
				c-5.481,4.427-8.18,6.368-10.296,12.924c-1.974,6.114-3.21,12.572-4.419,18.873c-6.206,32.348-7.405,64.562-11.86,97.154
				c-1.213,8.872-2.149,19.301,4.412,25.394c11.641-9.06,26.275-9.583,40.394-9.596c9.915-0.009,19.609-3.22,29.548-2.114
				c9.499,1.058,17.795-1.316,27.435-0.689c2.324,0.151,5.285,0.126,6.201-2.016c-3.336-10-3.278-20.753-4.033-31.268
				c-1.953-27.197-10.963-53.295-14.599-80.307c-1.236-9.182-1.895-24.422-9.006-31.372c-7.727-7.553-25.353-7.707-35.283-6.229
				C447.715,348.3,445.712,348.706,443.788,349.356z"/>
			<g>
				<g>
					<g>
						<g>
							<path style="fill:#EACDB0;" d="M451.163,348.9c0.163,0.318,0.382,0.622,0.674,0.91c1.154,1.138,2.753,1.784,4.34,2.011
								c2.092,0.299,4.218-0.048,6.294-0.444c2.804-0.535,2.705-2.177,3.111-4.722c0.222-1.391,0.361-2.792,0.466-4.197
								c0.058-0.77-0.241-3.526,0.25-4.065c0.333-0.366,1.688-0.243,2.282-0.553c0.941-0.491,1.728-1.397,2.293-2.276
								c0.912-1.418,1.414-3.054,1.905-4.667c0.855-2.806,1.71-5.612,2.565-8.418c0.873-2.867,1.752-5.758,2.032-8.742
								c0.423-4.498-0.304-10.847-3.699-14.135c-3.096-3-7.615-4.05-11.758-4.58c-5.487-0.701-11.174,0.303-15.912,3.215
								c-1.914,1.176-3.728,2.701-4.857,4.798c-1.742,3.233-1.609,7.268-1.422,11.041c0.173,3.483,0.346,6.965,0.519,10.448
								c0.199,4.006,0.698,8.622,3.699,10.794c1.594,1.153,3.677,1.4,5.041,2.879c1.708,1.852,1.598,4.632,1.669,6.981
								C450.694,346.522,450.594,347.792,451.163,348.9z"/>
						</g>
						<path style="fill:#1A3151;" d="M468.53,303.878c0.189,0.327,0.347,0.666,0.469,1.018c0.639,1.846,0.207,3.931,0.832,5.782
							c0.99,2.936,4.416,4.7,4.932,7.755c0.422,2.498-1.285,4.873-1.429,7.403c-0.157,2.763,1.612,5.379,1.338,8.107
							c-0.239,2.37-1.742,5.7-3.156,7.598c0.438-0.588,4.405-0.379,5.434-1.007c1.577-0.963,1.756-1.57,2.225-3.212
							c0.466-1.631,0.105-3.239,0.831-4.91c0.89-2.05,2.72-3.555,3.361-5.741c0.874-2.983-0.713-6.13-0.589-9.237
							c0.188-4.702,4.251-9.131,2.776-13.599c-0.865-2.621-3.411-4.297-4.842-6.657c-1.087-1.792-1.488-3.905-2.242-5.86
							c-0.754-1.956-2.05-3.913-4.061-4.506c-1.117-0.33-2.318-0.195-3.463-0.408c-1.979-0.368-3.623-1.734-5.53-2.379
							c-2.728-0.923-7.54,1.835-9.132,4.147c-1.58,2.295-0.783,4.246,0.833,6.274C459.807,297.825,466.309,300.036,468.53,303.878z"
							/>
					</g>
					<path style="fill:#1A3151;" d="M431.795,289.991c-1.635,1.2-3.653,2.065-5.146,3.467c-2.91,2.732-3.464,7.102-3.569,11.093
						c-0.094,3.553-1.648,6.711-1.263,10.414c0.258,2.487,1.316,5.002,3.34,6.471c2.52,1.829,6.477,2.129,7.602,5.033
						c1.221,3.154-2.046,7.127-0.063,9.867c1.094,1.512,3.239,1.733,4.805,2.749c1.747,1.133,2.644,3.157,3.711,4.945
						c1.067,1.788,2.669,3.579,4.75,3.624c0.084-3.166,0.178-5.675-1.174-8.57c-0.788-1.687-3.107-4.798-1.326-6.625
						c1.124-1.518,3.776-2.012,3.845-3.9c0.032-0.886-0.587-1.641-1.075-2.382c-1.889-2.867-2.081-6.686-0.8-9.871
						c1.281-3.185,3.919-5.729,7.009-7.226c3.621-1.754,3.038-2.638,4.09-6.105c0.968-3.19,2.779-3.939,5.651-5.102
						c2.579-1.044,3.408-1.695,4.359-4.108c0.696-1.766,1.554-3.881,0.544-5.852c-0.803-1.566-2.248-2.687-3.647-3.754
						c-2.924-2.229-6.209-4.573-9.876-4.309c-2.037,0.147-3.953,1.104-5.992,1.219c-1.36,0.077-2.712-0.224-4.073-0.269
						c-2.321-0.077-4.768,0.628-6.647,2.01c-1.896,1.394-1.842,2.852-2.895,4.83C433.438,288.609,432.672,289.348,431.795,289.991z"
						/>
					<path style="fill:#1A3151;" d="M440.006,276.973c0.357-2.206,0.128-5.08-1.979-5.825c-1.154-0.408-2.448,0.039-3.647-0.205
						c-2.556-0.52-3.427-3.616-4.768-5.854c-0.201-0.335-0.44-0.674-0.796-0.833c-0.51-0.228-1.095-0.026-1.65,0.042
						c-2.544,0.31-4.478-2.201-6.874-3.111c-2.966-1.127-6.697,0.728-7.591,3.772c-0.367,1.251-0.303,2.595-0.648,3.852
						c-1.396,5.093-8.855,7.26-9.044,12.538c-0.127,3.567,3.363,6.984,2.006,10.285c-0.868,2.111-3.583,3.55-3.273,5.811
						c0.2,1.455,1.749,2.445,3.217,2.424c1.468-0.021,2.817-0.826,3.923-1.792c1.755-1.533,3.078-3.5,4.75-5.123
						c1.672-1.623,3.902-2.94,6.215-2.651c2.24,0.28,4.267,2.023,6.493,1.65c1.781-0.298,3.102-1.887,4.851-2.335
						c1.637-0.419,3.338,0.224,5.024,0.326c1.686,0.102,3.757-0.776,3.802-2.465c0.011-0.409-0.104-0.832,0.025-1.22
						c0.36-1.089,2.219-1.026,2.573-2.117c-0.88-1.357-2.121-0.871-2.752-2.643C439.375,280.129,439.782,278.359,440.006,276.973z"
						/>
				</g>
			</g>
		</g>
	</g>
	<g>
		<g>
			<g>
				<g>
					<g>
						<g>
							<g>
								<path style="fill:#EAC1A4;" d="M826.066,691.787c-2.577,0.087-5.053-0.491-7.584-0.725
									c-1.306-25.091,1.065-51.388,2.093-76.599c6.446,0.344,12.891,0.688,19.337,1.032c-4.488,13.474-7.693,27.374-9.567,41.451
									C830.049,659.177,826.433,691.774,826.066,691.787z"/>
							</g>
							<g>
								<path style="fill:#1A3151;" d="M817.701,686.195c-1.591-0.283-2.529,0.425-3.59,1.394c-0.616,0.563-1.035,1.359-1.778,1.762
									c-0.743,0.403-1.472,0.482-2.355,0.57c-4.65,0.467-15.363,0.273-9.656,8.05c5.183,7.063,18.948,4.251,26.899,2.333
									c0.523-0.126,1.075-0.205,1.458-0.609c0.383-0.405,0.642-0.982,0.805-1.579c0.907-3.323,2.148-7.473-1.938-8.865
									c-1.743-0.594-3.348,0.56-5.193-0.079C820.842,688.648,819.293,686.478,817.701,686.195z"/>
							</g>
						</g>
					</g>
					<path style="fill:#1A3151;" d="M806.123,629.596c13.145-0.255,26.29-0.51,39.435-0.765
						c10.633-50.62,19.998-101.507,28.081-152.596c0.627-3.961,1.237-8.08,0.095-11.925c-2.159-7.271-9.946-11.42-17.402-12.813
						c-11.587-2.165-32.875,0.85-38.817,12.897c-6.28,12.732-5.225,35.47-6.748,49.539
						C806.61,552.323,805.054,590.996,806.123,629.596z"/>
				</g>
				<g>
					<g>
						<g>
							<g>
								<path style="fill:#EAC1A4;" d="M901.239,691.787c2.577,0.087,5.053-0.491,7.584-0.725
									c1.306-25.091-1.065-51.388-2.093-76.599c-6.446,0.344-12.891,0.688-19.337,1.032c4.488,13.474,7.693,27.374,9.567,41.451
									C897.256,659.177,900.871,691.774,901.239,691.787z"/>
							</g>
							<g>
								<path style="fill:#1A3151;" d="M909.603,686.195c1.591-0.283,2.529,0.425,3.59,1.394c0.616,0.563,1.035,1.359,1.778,1.762
									c0.743,0.403,1.472,0.482,2.355,0.57c4.65,0.467,15.363,0.273,9.656,8.05c-5.183,7.063-18.948,4.251-26.899,2.333
									c-0.523-0.126-1.075-0.205-1.458-0.609c-0.383-0.405-0.642-0.982-0.805-1.579c-0.907-3.323-2.148-7.473,1.938-8.865
									c1.743-0.594,3.348,0.56,5.193-0.079C906.463,688.648,908.012,686.478,909.603,686.195z"/>
							</g>
						</g>
					</g>
					<path style="fill:#1A3151;" d="M921.182,629.596c-13.145-0.255-26.29-0.51-39.435-0.765
						c-10.633-50.62-19.998-101.507-28.081-152.596c-0.627-3.961-1.237-8.08-0.096-11.925c2.159-7.271,9.946-11.42,17.402-12.813
						c11.587-2.165,32.875,0.85,38.817,12.897c6.28,12.732,5.226,35.47,6.749,49.539
						C920.695,552.323,922.251,590.996,921.182,629.596z"/>
				</g>
			</g>
			<g>
				<g>
					<path style="fill:#EAC1A4;" d="M796.827,279.275c0.176,0.189,0.356,0.387,0.466,0.61c1.03,2.088,0.317,3.793,0.735,6.075
						c0.186,1.018,2.645,2.037,1.072,3.519c-0.58,0.547-2.193,1.688-3.442,2.842c-1.821,1.683-3.112,4.918-3.662,7.675
						c-2.164,10.832-1.319,21.954-0.138,32.928c0.067,0.626,0.147,1.278,0.495,1.802c0.623,0.939,1.874,1.173,2.987,1.349
						c5.161,0.815,10.246,2.111,15.168,3.865c4.391,1.565,8.758,3.566,12.046,6.872c3.288,3.305,5.34,8.143,4.309,12.69
						c-0.772,3.405-3.288,6.365-6.523,7.676c-8.024,3.252-16.948-5.712-23.08-9.892c-5.801-3.954-11.326-8.315-16.518-13.042
						c-0.641-0.584-1.293-1.195-1.654-1.983c-0.384-0.84-0.397-1.796-0.401-2.72c-0.05-11.897,0.951-23.731,2.197-35.606
						c0.342-3.263,2.356-5.932,2.646-8.952c0.185-1.927-1.057-3.572-1.285-5.43c-0.226-1.837-0.054-4.307,0.413-6.097
						c0.922-3.529,4.423-4.92,7.363-6.437c0.732-0.378,1.225-0.635,1.997-0.627c1.255,0.013,2.216,0.762,3.195,1.471
						C795.794,278.285,796.343,278.753,796.827,279.275z"/>
				</g>
				<g>
					<path style="fill:#C8D6A1;" d="M800.609,357.085c1.99-6.712,3.98-13.424,5.97-20.137c-0.128,0.431,31.01,7.167,32.85,7.631
						c7.022,1.773,14.285,3.662,19.924,8.206c12.042,9.702,6.266,29.223-9.73,29.431c-17.366,0.227-36.277-6.158-50.213-16.449
						c-0.303-0.224-0.617-0.465-0.769-0.809c-0.208-0.473-0.064-1.019,0.083-1.514C799.352,361.324,799.981,359.204,800.609,357.085
						z"/>
				</g>
			</g>
			<g>
				<path style="fill:#C8D6A1;" d="M887.476,352.022c10.538,10.03,18.433,22.914,23.187,36.26
					c8.42,23.634,8.582,48.868,8.659,73.595c0.026,8.23,0.051,16.46,0.077,24.689c0.026,8.097-0.69,9.84-9.49,8.772
					c-16.307-1.978-33.259-5.34-48.034-12.586c-7.031-3.448-13.602-7.804-20.974-10.519c-10.723-3.949-21.716-2.161-32.325-4.731
					c4.606-13.922,7.902-25.78,10.265-40.124c2.434-14.77,4.646-30.881,8.213-45.452c2.14-8.744,6.12-16.912,10.169-24.952
					c2.721-5.404,5.603-10.935,10.224-14.842C861.369,330.367,876.978,342.03,887.476,352.022z"/>
			</g>
			<g>
				<g>
					<g>
						<path style="fill:#EAC1A4;" d="M849.451,317.351c1.99,4.35,5.243,7.976,7.898,11.955c2.583,3.871,3.513,7.374,4.198,11.863
							c0.495,3.242,1.654,5.776,5.559,6.331c7.366,1.047,5.259-5.039,6.932-9.466c1.913-5.06,5.991-9.059,8.841-13.576
							c8.235-13.052,5.885-38.849-11.232-44.354C852.931,274.086,843.411,304.15,849.451,317.351z"/>
					</g>
				</g>
				<g>
					<path style="fill:#152A44;" d="M879.285,304.721c2.125,0.086,4.462,0.254,6.037,1.681c1.576,1.427,1.405,4.539-0.675,4.876
						c-1.886,0.305-4.328-1.663-5.479-0.227c-0.673,0.839-0.082,2.068,0.429,3.049c1.96,3.767,2.547,8.135,1.632,12.149
						c0.776,0.719,1.986-0.027,2.668-0.776c3.384-3.717,6.027-8.058,7.758-12.742c0.68,1.134,1.677,2.099,2.852,2.761
						c-0.705-1.761-0.259-3.688,0.176-5.485c1.599-6.602,2.688-14.337-1.923-19.732c-2.467-2.886-6.218-4.548-9.991-5.246
						c-3.773-0.698-7.618-0.528-11.419-0.356c-1.627,0.074-3.631,0.424-4.022,1.929c3.567,1.431,7.259,4.217,9.045,7.595
						C876.922,295.236,879.068,304.712,879.285,304.721z"/>
				</g>
				<g>
					<path style="fill:#1A3151;" d="M871.745,288.858c0.13,0.095,0.258,0.189,0.383,0.285c1.617,1.231,3.133,2.728,5.09,3.274
						c2.821,0.787,5.851-0.573,8.628,0.388c3.104,1.074,5.145,4.786,7.411,6.983c3.716,3.603,8.323,6.251,13.268,7.757
						c2.526,0.769,5.143,1.241,7.78,1.39c1.195,0.068,2.794,0.294,3.96-0.02c1.564-0.421,1.51-1.132-0.156-1.666
						c-5.225-1.674-6.864-9.013-6.469-13.878c0.312-3.84,1.636-7.854,0.172-11.417c-1.119-2.722-3.521-4.128-5.844-5.685
						c-2.561-1.718-5.338-1.255-8.247-2.081c-3.034-0.862-5.506-3.251-8.601-3.86c-3.268-0.644-6.535,0.805-9.805,1.44
						c-2.702,0.525-5.511,0.49-8.199-0.101c-2.409-0.53-4.759-1.505-7.225-1.482c-3.637,0.034-6.982,2.303-9.104,5.257
						c-3.002,4.178-4.943,11.327-3.885,16.828c-0.164-0.854,2.708-3.946,3.299-4.612c1.247-1.404,2.753-2.72,4.657-2.947
						C863.171,284.198,868.28,286.342,871.745,288.858z"/>
				</g>
			</g>
			<g>
				<g>
					<path style="fill:#EAC1A4;" d="M875.616,458.435c-0.037-0.256-0.072-0.52-0.036-0.767c0.341-2.303,1.897-3.3,2.852-5.414
						c0.426-0.943-1.016-3.18,1.12-3.504c0.789-0.12,2.764-0.14,4.447-0.379c2.455-0.348,5.357-2.274,7.378-4.228
						c2.717-2.626,5.532-5.468,7.808-8.446c4.781-6.257,9.414-13.747,12.923-20.809c-11.403-6.313-18.704-19.389-18.097-32.409
						c0.063-1.361,0.222-2.768,0.922-3.937c0.592-0.988,1.527-1.724,2.511-2.324c10.401-6.341,15.963,3.785,20.787,11.757
						c3.01,4.975,5.751,10.216,7.996,15.585c3.145,7.517,0.663,14.082-3.689,20.725c-4.612,7.04-9.41,14.088-15.438,20.011
						c-2.929,2.879-6.19,4.999-9.437,7.447c-3.209,2.419-1.953,3.713-4.219,6.552c-1.264,1.584-2.254,3.438-3.797,4.764
						c-2.766,2.378-6.437,1.529-9.717,1.104c-0.817-0.106-1.369-0.175-1.999-0.621c-1.025-0.725-1.389-1.887-1.791-3.028
						C875.903,459.837,875.717,459.14,875.616,458.435z"/>
				</g>
				<g>
					<path style="fill:#C8D6A1;" d="M916.778,392.297c-5.456,4.388-10.911,8.775-16.367,13.163
						c0.35-0.282-21.423-23.538-22.672-24.966c-4.766-5.453-9.664-11.139-11.716-18.084c-4.383-14.83,11.474-27.597,24.748-18.667
						c14.409,9.694,26.329,25.705,31.934,42.097c0.122,0.356,0.243,0.733,0.172,1.103c-0.098,0.507-0.527,0.874-0.93,1.198
						C920.223,389.526,918.501,390.911,916.778,392.297z"/>
				</g>
			</g>
		</g>
		<g>
			<path style="opacity:0.49;fill:#808080;" d="M654.069,199.071c-0.016-0.088-0.027-0.177-0.043-0.265
				c0.053,0.044,0.1,0.092,0.152,0.136C654.142,198.986,654.104,199.027,654.069,199.071z"/>
		</g>
	</g>
	<g>
		<path style="fill:#EACDB0;" d="M380.684,303.279c0.145-0.122,0.302-0.262,0.47-0.434c1.584-1.624,2.326-4.116,1.958-6.342
			c-1.393-0.349-2.787-0.697-4.18-1.045c-0.724,1.577-1.7,3.039-2.879,4.312c-0.265,0.286-0.595,0.584-0.982,0.551
			c-0.366-0.031-0.635-0.346-0.854-0.642c-3.198-4.325-4.728-9.852-4.209-15.205c-0.031,0.318-3.794-0.527-4.13-0.637
			c-1.736-0.569-2.154-0.618-3.909,0.004c-0.28,0.057-0.539,0.15-0.779,0.276c-0.863,0.306-1.726,0.612-2.589,0.918
			c-0.547,0.194-1.129,0.414-1.46,0.89c-0.322,0.463-0.335,1.067-0.335,1.631c-0.008,5.05-0.016,10.101-0.024,15.151
			c-0.001,0.633,0.001,1.286,0.241,1.872c0.266,0.65,0.794,1.151,1.324,1.611c2.435,2.113,5.228,3.813,8.225,5.003
			c0.545,0.216,1.123,0.435,1.494,0.888c0.289,0.352,0.417,0.805,0.538,1.243c0.773,2.793,1.545,5.585,2.318,8.378
			c3.533-1.193,7.263-1.8,10.992-1.788c0.545-3.825,0.087-7.788-1.317-11.388c-0.402-1.032-1.033-2.322-0.967-3.458
			C379.69,304.004,380.082,303.786,380.684,303.279z"/>
		<polygon style="fill:#145566;" points="365.592,312.683 382.998,309.832 400.75,358.415 442.689,351.271 433.555,407.171 
			380.205,375.218 		"/>
	</g>
	<g>
		<g>
			<g id="XMLID_235_">
				<path id="XMLID_236_" style="fill:#EACDB0;" d="M652.993,590.157l0.637,38.717c-0.26,10.742,0.708,21.451,1.361,32.158
					c0.607,9.945-1.398,20.195,3.321,29.413c1.479,2.89,4.628,4.903,7.024,1.565c1.846-2.573,0.997-7.025,1.453-10.011
					c3.427-22.445,9.806-44.333,12.989-66.82C683.111,591.623,673.998,592.245,652.993,590.157z"/>
			</g>
			<polygon style="fill:#1A3151;" points="655.193,683.827 652.704,690.286 664.953,701.068 676.174,701.53 679.803,695.609 
				664.711,682.487 			"/>
		</g>
		<g>
			<g id="XMLID_225_">
				<path id="XMLID_226_" style="fill:#EACDB0;" d="M625.565,590.534l-7.062,38.075c-2.448,17.032-8.012,33.619-10.46,50.652
					c-0.563,3.916-0.279,8.2-1.916,11.895c-1.601,3.614-4.736,3.757-7.502,1.305c-3.706-3.285-1.996-9.154-1.928-13.641
					c0.453-29.891-1.898-59.358-2.464-89.297c-0.007-0.393,0.01-0.842,0.313-1.092c0.247-0.203,0.599-0.198,0.917-0.177
					C598.372,588.447,625.413,591.357,625.565,590.534z"/>
			</g>
			<polygon style="fill:#1A3151;" points="596.611,685.417 592.728,691.147 602.228,704.415 613.055,707.398 617.926,702.449 
				606.186,686.259 			"/>
		</g>
		<polygon style="fill:#1A3151;" points="692.898,614.792 687.615,559.439 685.068,523.474 676.503,494.099 630.256,486.922 
			573.079,496.722 570.33,507.831 581.334,610.659 636.484,614.792 635.736,550.793 644.243,590.461 643.882,614.792 		"/>
	</g>
	<path style="fill:#FFFFFF;" d="M585.217,385.949c-0.078,1.869-0.129,3.737-0.162,5.601c-0.669,37.969,1.424,76.421,1.664,114.704
		c19.607-3.069,39.429-4.76,59.272-5.06c4.593-0.069,25.475,3.155,28.383,0.413c3.945-3.721-0.394-3.021-0.105-7.869
		c0.374-6.273-2.641-11.411-1.502-18.844c1.338-8.737,4-17.378,5.533-26.113c3.074-17.515,4.925-35.245,5.526-53.018
		c0.533-15.764-0.039-32.113-6.818-46.354c-16.717-35.121-70.614-34.489-85.403,2.182
		C587.226,362.451,585.705,374.21,585.217,385.949z"/>
	<path style="fill:#EACDB0;" d="M700.558,306.192c5.66-7.544,8.055-15.652,10.363-25.829c1.718-7.573,3.139-15.228,4.53-22.866
		c0.918-5.054,1.755-9.476,1.782-14.545c0.023-4.242,2.333-10.137-1.439-13.479c0.73-1.718,3.242-2.342,4.691-1.166
		c0.228,0.185,0.443,0.41,0.727,0.48c0.488,0.12,0.956-0.263,1.245-0.673c0.846-1.2,0.937-2.751,1.227-4.191
		c0.468-2.32,1.271-6.078,2.989-7.758c1.393-1.363,3.237-2.147,5.034-2.901c0.333-0.139,0.697-0.282,1.044-0.185
		c0.294,0.081,0.515,0.318,0.72,0.543c1.89,2.084,3.999,4.12,5.608,6.389c-2.488,2.127-2.888,5.251-4.293,8.061
		c-1.844,3.69-4.118,6.619-4.377,10.933c-0.402,6.702-0.28,13.429-0.77,20.14c-0.958,13.112-2.723,26.137-4.41,39.169
		c-1.143,8.632-2.308,17.463-5.74,25.541c-3.38,7.954-8.271,12.763-14.8,18.422c-1.501,1.301-3.06,2.635-4.954,3.234
		c-2.873,0.909-6.06-0.054-8.566-1.728c-6.625-4.424-9.097-14.078-5.416-21.142c1.977-3.793,5.334-6.639,8.486-9.532
		C696.725,310.827,698.8,308.537,700.558,306.192z"/>
	<path style="fill:#B5D6CA;" d="M646.034,336.683l-14.638,26.677c0.765,26.949,1.53,53.897,2.295,80.846
		c0.352,12.419,0.705,24.839,1.058,37.258c0.122,4.312,0.229,8.626,0.367,12.938c0.062,1.936-0.473,5.194,0.631,6.773
		c2.397,3.429,11.157,2.36,14.979,2.66c5.96,0.469,12.006,0.956,17.619,3.013c3.737,1.37,7.279,3.433,11.221,3.986
		c0.886,0.124,1.876,0.142,2.571-0.42c0.778-0.629,0.91-1.743,0.984-2.741c1.37-18.501,1.398-37.574,2.425-56.273
		c0.84-15.303,2.981-31.473,1.653-46.796c-0.022-0.255-0.047-0.512-0.094-0.764c-1.358-7.371,0-31.716,0-31.719
		c0.057-1.024,3.56-3.677,4.236-4.375c3.482-3.596,6.964-7.193,10.446-10.789c6.948-7.177,20.362-16.042,14.97-27.649
		c-0.656-1.411-1.654-2.635-2.716-3.772c-7.874-8.432-17.936-13.161-23.572-23.543c-9.863,4.865-17.901,14.476-28.391,18.479
		c-5.462,2.078-11.236,2.794-16.946,1.394c-3.359-0.823-10.592-3.441-8.776,3.206C637.397,328.876,643.466,333.628,646.034,336.683z
		"/>
	<path style="fill:#B5D6CA;" d="M614.187,339.192l14.638,26.677c-0.306,0-1.856,65.393-1.981,69.806
		c-0.477,16.786-0.953,33.572-1.43,50.357c-0.132,4.665,0.495,10.131-0.418,14.717c-1.274,6.403-8.014,5.142-13.758,5.66
		c-12.563,1.133-25.791,3.278-38.39,2.642c-3.634-0.184,1.149-76.022,1.142-83.099c-0.024-25.454-5.276-53.694,7.654-76.777
		c3.762-6.716,10.394-17.483,17.715-20.799c6.822-3.09,16.588-3.616,23.994-5.348l0.386,4.799L614.187,339.192z"/>
	<g>
		<g>
			<path style="fill:#1A3151;" d="M645.958,274.575c2.305,4.039,3.415,8.691,3.62,13.336c0.054,1.235,0.139,2.662,1.137,3.391
				c1.069,0.781,0.13,2.493,0.943,1.449c0.813-1.044,3.575-4.672,3.699-5.989c0.291-3.087,0.286-6.203-0.013-9.289
				c-0.261-2.684-0.809-5.489-2.566-7.535c-1.042-1.214-2.431-2.066-3.8-2.893c-1.985-1.199-4.03-2.409-6.31-2.833
				c-3.93-0.732-6.34,0.678-2.872,3.418C642.279,269.591,644.38,271.808,645.958,274.575z"/>
			<g>
				<path style="fill:#EACDB0;" d="M621.407,327.271c0.026,1.901-0.363,3.873,1.314,5.348c0.806,0.709,1.896,0.993,2.957,1.161
					c2.741,0.434,5.581,0.233,8.233-0.584c1.091-0.336,2.178-0.792,3.002-1.583c0.973-0.934,1.022-1.82,1.069-3.043
					c0.055-1.433,0.344-2.89,0.532-4.343c0.41-3.179,0.595-6.383,0.687-9.585c4.708-0.808,10.246-2.33,11.855-7.262
					c0.507-1.554,0.525-3.243,0.537-4.896c0.05-6.833,0.1-13.666,0.15-20.499c0.017-2.363,0.023-4.798-0.787-6.991
					c-1.42-3.848-5.028-6.142-8.567-7.585c-9.029-3.683-19.554-3.536-27.888,1.702c-2.218,1.394-4.311,3.187-5.589,5.622
					c-1.97,3.753-1.722,8.388-1.416,12.719c0.282,3.998,0.565,7.996,0.847,11.993c0.325,4.598,1.015,9.891,4.586,12.319
					c1.896,1.289,4.346,1.526,5.98,3.195c2.852,2.913,1.493,7.263,2.336,10.793C621.362,326.244,621.4,326.755,621.407,327.271z"/>
			</g>
			<path style="fill:#1A3151;" d="M653.249,299.758c-0.077-1.267-0.63-4.98-2.535-2.646c-0.498,0.61-0.621,1.473-0.652,2.285
				c-0.031,0.813,0.006,1.649-0.25,2.414c-0.588,1.756-2.531,2.555-4.262,2.524c-0.688-0.012-1.39-0.125-1.999-0.472
				c-0.591-0.336-1.06-0.871-1.518-1.396c-1.111-1.275-2.222-2.55-3.333-3.824c-1.91-2.191-5.697-1.244-8.271-0.908
				c-2.965,0.387-5.932,1.282-8.356,3.233c-0.244,0.197-0.483,0.404-0.722,0.61c-0.584,0.504-1.171,1.003-1.85,1.333
				c-2.29,1.115-5.126-0.048-6.732-2.134c-0.736-0.956-1.422-2.186-2.565-2.346c-0.894-0.125-1.764,0.516-2.223,1.352
				c-0.459,0.837-0.582,1.834-0.644,2.803c-0.226,3.529,0.26,7.169,1.79,10.299c3.318,6.788,9.731,7.622,16.177,7.47
				c2.548-0.06,5.096-0.12,7.644-0.181c4.658-0.11,9.582-0.303,13.506-3.011c3.461-2.389,5.519-6.45,6.362-10.703
				C653.253,304.264,653.384,301.998,653.249,299.758z M636.206,309.38c-2.453,1.649-5.157,1.738-7.891,0.915
				c-1.162-0.35-0.669-2.301,0.495-1.95c2.266,0.682,4.404,0.664,6.447-0.709C636.285,306.945,637.228,308.693,636.206,309.38z"/>
			<path style="fill:#1A3151;" d="M654.222,262.733c0.45-1.656,0.782-3.344,0.994-5.046c-1.576,0.553-3.293,0.7-4.941,0.423
				c-0.004-0.982-0.008-1.965-0.012-2.947c-0.007-0.817-11.062-1.389-11.961-1.463c-8.409-0.69-16.1-1.346-23.704,3.167
				c-6.496,3.855-10.66,9.612-11.657,17.106c-0.952,7.159,1.391,16.509,5.531,22.451c-0.024-1.906-1.12-6.402-0.671-8.213
				c0.276-1.815,0.903-3.565,1.768-5.181c1.727-3.226,4.404-5.942,7.495-7.879c4.929-3.089,10.659-4.722,16.383-5.519
				c5.244-0.73,11.634-1.404,16.815-0.015c2.49,0.668,2.903,1.292,4.411-1.221c0.266-0.443,2.374-5.618,2.168-5.621
				C655.969,262.76,655.095,262.747,654.222,262.733z"/>
		</g>
	</g>
	<g>
		<g>
			<g>
				<path style="fill:#E1E1E5;" d="M800.053,350.704l32.797-193.73c0.52-3.251-4.134-4.359-5.15-1.226l-41.395,144.728l4.753,49.185
					L800.053,350.704z"/>
				<path style="fill:#145566;" d="M814.794,379.905c-0.017-0.006-0.033-0.012-0.051-0.017c-5.196-1.72-8.554-14.03-9.983-20.514
					l-0.789-3.974v0l0,0l-1.747-8.805l-13.922-1.615l-7.287,60.875l0.002-0.001c-0.005,0.036-0.01,0.072-0.015,0.109
					c-1.952,16.309,9.671,31.109,25.91,32.993c16.239,1.883,31.038-9.852,32.991-26.161
					C841.823,396.754,830.612,382.174,814.794,379.905z M808.199,428.199c-10.334-1.199-17.73-10.617-16.488-20.995
					c1.242-10.378,10.66-17.847,20.994-16.648c10.334,1.198,17.73,10.617,16.488,20.995
					C827.951,421.93,818.533,429.398,808.199,428.199z"/>
			</g>
			<g>
				<path style="fill:#E1E1E5;" d="M761.543,331.207L890.47,182.924c2.182-2.465,5.993,0.429,4.216,3.202l-85.595,123.831
					l-41.033,27.54L761.543,331.207z"/>
				<path style="fill:#145566;" d="M688.264,339.813c-11.367,11.858-11.046,30.742,0.715,42.096s30.576,10.944,41.943-0.914
					c0.025-0.027,0.05-0.054,0.075-0.08v0.002l42.427-44.262l-10.083-9.734l-7.914,4.237l0,0l0,0l-3.572,1.912
					c-5.918,3.011-17.565,8.228-22.191,5.304c-0.016-0.01-0.03-0.019-0.046-0.028C717.827,327.561,699.443,328.15,688.264,339.813z
					 M696.02,347.3c7.233-7.546,19.207-7.807,26.691-0.582c7.484,7.225,7.688,19.242,0.455,26.788
					c-7.233,7.546-19.207,7.807-26.691,0.582C688.991,366.863,688.787,354.846,696.02,347.3z"/>
			</g>
			<path style="fill:#7F7F7F;" d="M801.81,305.343c0.606-2.005-0.52-4.116-2.515-4.715c-1.995-0.599-4.104,0.541-4.71,2.546
				c-0.606,2.005,0.52,4.116,2.515,4.715C799.096,308.488,801.204,307.348,801.81,305.343z"/>
		</g>
	</g>
	<g>
		<g>
			
				<rect x="281.951" y="130.35" transform="matrix(0.7729 -0.6345 0.6345 0.7729 -68.7037 248.9078)" style="fill:#F2F2F2;" width="62.857" height="180.169"/>
			
				<rect x="249.675" y="148.467" transform="matrix(0.7729 -0.6345 0.6345 0.7729 -48.0214 214.382)" style="fill:#E2F2EB;" width="51.621" height="51.621"/>
			
				<rect x="286.284" y="193.059" transform="matrix(0.7729 -0.6345 0.6345 0.7729 -68.0025 247.738)" style="fill:#C5E2D4;" width="51.621" height="51.621"/>
			
				<rect x="322.893" y="237.652" transform="matrix(0.7729 -0.6345 0.6345 0.7729 -87.9837 281.0935)" style="fill:#B5D6CA;" width="51.621" height="51.621"/>
		</g>
		<g>
			
				<rect x="316.141" y="111.069" transform="matrix(0.9446 -0.3282 0.3282 0.9446 -46.7687 125.2276)" style="fill:#F2F2F2;" width="62.857" height="180.169"/>
			
				<rect x="302.157" y="118.933" transform="matrix(0.9446 -0.3282 0.3282 0.9446 -29.339 115.6674)" style="opacity:0.5;fill:#F9D478;" width="51.621" height="51.621"/>
			
				<rect x="321.094" y="173.431" transform="matrix(0.9446 -0.3282 0.3282 0.9446 -46.1776 124.9023)" style="fill:#F9D478;" width="51.621" height="51.621"/>
			
				<rect x="340.031" y="227.929" transform="matrix(0.9446 -0.3282 0.3282 0.9446 -63.0163 134.1373)" style="fill:#F7BE3E;" width="51.621" height="51.621"/>
		</g>
		<g>
			
				<rect x="353.81" y="111.852" transform="matrix(0.9996 0.0277 -0.0277 0.9996 5.737 -10.5856)" style="fill:#F2F2F2;" width="62.857" height="180.169"/>
			
				<rect x="361.08" y="116.43" transform="matrix(0.9996 0.0277 -0.0277 0.9996 4.0852 -10.6541)" style="opacity:0.4;fill:#3ABABA;" width="51.621" height="51.621"/>
			
				<rect x="359.484" y="174.102" transform="matrix(0.9996 0.0277 -0.0277 0.9996 5.6809 -10.5878)" style="opacity:0.6;fill:#3ABABA;" width="51.621" height="51.621"/>
			
				<rect x="357.887" y="231.775" transform="matrix(0.9996 0.0277 -0.0277 0.9996 7.2766 -10.5215)" style="fill:#3ABABA;" width="51.621" height="51.621"/>
		</g>
	</g>
	<g>
		<g>
			<g>
				<path style="fill:#EAC1A4;" d="M177.181,351.293c0.258-0.005,0.525-0.008,0.766,0.059c2.244,0.621,3.042,2.287,5.023,3.495
					c0.884,0.539,3.281-0.618,3.34,1.542c0.022,0.797-0.2,2.76-0.17,4.46c0.045,2.479,1.6,5.595,3.291,7.841
					c2.273,3.019,4.748,6.161,7.425,8.785c5.623,5.513,12.489,11.029,19.067,15.378c7.664-10.542,21.537-16.185,34.384-13.985
					c1.343,0.23,2.72,0.56,3.794,1.398c0.908,0.709,1.524,1.727,1.999,2.777c5.017,11.099-5.715,15.378-14.218,19.188
					c-5.307,2.378-10.845,4.454-16.448,6.025c-7.846,2.199-14.057-1.069-20.116-6.203c-6.421-5.441-12.827-11.067-17.966-17.776
					c-2.498-3.26-4.202-6.756-6.233-10.28c-2.008-3.482-3.445-2.394-5.985-4.991c-1.417-1.449-3.135-2.659-4.262-4.353
					c-2.021-3.037-0.728-6.576,0.097-9.779c0.205-0.798,0.342-1.337,0.861-1.908c0.845-0.928,2.043-1.147,3.225-1.406
					C175.754,351.405,176.469,351.307,177.181,351.293z"/>
			</g>
			<g>
				<path style="fill:#B5D6CA;" d="M239.843,409.579c-4.268,1.408-8.515,2.605-12.65,3.599c-6.166,1.482-12.922,2.909-18.627,0.139
					c-2.199-1.068-4.07-2.694-5.904-4.311c-8.692-7.664-17.193-15.546-25.49-23.636c3.086-5.246,6.973-10.021,11.484-14.107
					c1.266-1.147,2.718-2.295,4.425-2.362c2.536-0.098,4.463,2.154,5.972,4.195c2.458,3.323,4.915,6.645,7.373,9.968
					c0.798,1.078,1.723,2.239,3.044,2.472c0.862,0.152,1.736-0.129,2.563-0.419c15.624-5.481,27.544-13.078,41.146-22.293
					c5.996-4.061,12.24-8.224,19.385-9.409c15.255-2.53,25.981,14.772,15.49,26.85C276.092,394.036,257.783,403.661,239.843,409.579
					z"/>
			</g>
		</g>
		<g>
			<g>
				<g>
					<polygon style="fill:#1A3151;" points="311.23,694.359 310.991,701.744 295.981,708.651 288.835,701.026 296.46,693.88 
						311.469,686.974 					"/>
				</g>
				<g>
					<polygon style="fill:#1A3151;" points="341.653,472.177 340.927,494.606 307.873,590.831 312.08,692.004 297.336,694.459 
						267.358,570.808 269.678,534.55 285.884,460.976 					"/>
				</g>
			</g>
			<g>
				<g>
					<polygon style="fill:#1A3151;" points="248.243,475.763 229.491,568.199 224.152,690.978 237.575,693.54 267.088,584.943 
						306.492,478.234 					"/>
				</g>
				<g>
					<polygon style="fill:#1A3151;" points="237.803,691.928 236.418,699.186 220.516,703.674 214.643,695.03 223.287,689.157 					
						"/>
				</g>
			</g>
			<g>
				<path style="fill:#B5D6CA;" d="M353.467,485.183c0.188,8.605-0.082,20.201-3.388,20.626c-0.619,0.08-1.213-0.227-1.755-0.522
					c-5.716-3.121-9.761-7.514-15.395-10.529c-5.906-3.16-12.662-4.84-19.288-6.015c-9.908-1.81-20.034-2.933-30.129-3.109
					c-7.936-0.138-15.909,0.538-23.811,1.195c-6.574,0.547-12.691,2.496-19.389,2.031c-6.865-0.476-13.626-2.578-19.494-6.185
					c-0.215-0.132-0.442-0.282-0.531-0.518c-0.097-0.258-0.003-0.545,0.092-0.804c1.402-3.842,2.41-7.647,4.956-10.829
					c2.843-3.553,4.864-8.068,6.919-12.113c4.283-8.429,8.317-17.264,11.311-26.244c4.524-12.206,9.691-24.096,14.064-36.343
					c3.031-8.488,5.795-17.128,9.908-25.176c3.22-6.301,8.96-15.506,15.873-18.281c2.34-0.939,4.922-1.024,7.442-1.096
					c7.646-0.22,15.291-0.439,22.937-0.659c2.787-0.08,5.686-0.139,8.227,1.01c3.807,1.721,5.96,5.72,7.841,9.451
					c8.437,16.729,13.816,34.765,16.829,53.365c1.573,9.712,3.028,19.443,4.161,29.21c1.264,10.9,2.132,21.849,2.315,32.815
					C353.185,477.681,353.378,481.095,353.467,485.183z"/>
			</g>
			<g>
				<path style="fill:#FFFFFF;" d="M302.453,392.909c-0.288,4.332,0.33,8.668,0.946,12.968c3.753,26.186,7.507,52.372,11.26,78.558
					c-20.529-0.179-41.058-0.357-61.587-0.536c0.743-9.811,1.487-19.622,2.23-29.434c0.477-6.29,0.956-12.602,2.284-18.774
					c2.142-9.956,6.439-19.327,10.705-28.61c7.883-17.151,15.767-34.303,23.65-51.454c0.422-0.917,0.866-1.865,1.643-2.525
					c0.93-0.791,2.201-1.056,3.416-1.267c5.869-1.02,12.495-1.882,18.392-1.016c1.474,5.368-3.965,14.702-5.98,19.696
					C306.48,377.78,302.979,384.994,302.453,392.909z"/>
			</g>
			<g>
				<g>
					<path style="fill:#EACDB0;" d="M298.664,355.56c4.255-0.185,8.51-0.37,12.765-0.554c0.229-3.388,0.187-6.795-0.125-10.177
						c0.038,0.411,6.847-3.179,7.45-3.994c1.734-2.344,1.936-6.282,2.658-9.071c1.537-5.941,2.981-12.631-0.159-17.904
						c-3.252-5.461-10.287-7.33-16.64-7.496c-7.977-0.208-16.884,2.117-20.985,8.961c-3.705,6.182,0.969,15.3,2.304,21.838
						c0.658,3.223,1.662,6.902,4.657,8.263c1.59,0.723,3.519,0.644,4.939,1.662C298.031,348.883,297.468,352.722,298.664,355.56z"/>
				</g>
				<g>
					<path style="fill:#1A3151;" d="M271.059,303.505c-0.474-4.409-0.949-8.819-1.423-13.228c-0.176-1.638-0.346-3.337,0.183-4.896
						c0.88-2.594,3.514-4.214,6.159-4.93c2.644-0.716,5.428-0.742,8.103-1.331c2.855-0.628,5.631-1.9,8.551-1.772
						c5.554,0.245,9.806,5.396,15.296,6.274c7.601,1.215,14.582-2.268,19.171,6.678c0.843,1.644,1.077,3.536,1.821,5.227
						c0.961,2.184,2.709,3.908,4.076,5.863c6.01,8.601,4.067,21.654-3.218,28.943c-3.532,3.534-4.977,6.731-9.843,7.864
						c2.229-4.53-0.714-22.575-6.816-24.6c-1.616-0.535-6.47,1.441-8.26,1.703c-3.965,0.579-7.82,1.215-11.55,2.76
						c-5.536,2.293-11.546,3.918-17.538,4.365c-0.766,0.057-1.623,0.086-2.202-0.42c-0.544-0.476-0.657-1.266-0.735-1.985
						C272.243,314.516,271.651,309.01,271.059,303.505z"/>
				</g>
			</g>
		</g>
		<g>
			
				<rect x="216.65" y="347.639" transform="matrix(0.8678 0.4969 -0.4969 0.8678 211.08 -61.3053)" style="fill:#8B8D96;" width="8.211" height="36.812"/>
			<polygon style="fill:#E1E1E5;" points="216.467,348.782 211.117,358.124 209.046,361.741 203.696,371.083 208.046,379.978 
				216.158,365.813 218.228,362.197 226.339,348.032 			"/>
			<path style="fill:#3ABABA;" d="M350.478,403.441l-94.975-54.386l-20.448,0.279l-8.749,15.278l-3.977,6.945l-8.749,15.278
				l9.812,24.392c3.017,7.5,8.385,13.819,15.298,18.009l27.889,16.903c3.963,2.402,6.045,6.991,5.241,11.555l-10.282,58.389
				c-1.118,6.346,1.865,12.711,7.457,15.913l8.792,5.034c9.186,5.26,20.809-0.186,22.645-10.612l8.34-47.362
				c0.551-3.129,3.738-4.952,6.771-4.004c5.583,1.746,14.216,1.998,20.554-9.07l7.949-13.883l4.677-8.167l1.988-3.472l1.988-3.472
				l4.677-8.167C362.48,419.909,359.392,408.545,350.478,403.441z"/>
			
				<rect x="201.07" y="351.933" transform="matrix(-0.8678 -0.4969 0.4969 -0.8678 206.7236 770.4219)" style="fill:#8B8D96;" width="9.555" height="11.556"/>
			
				<rect x="107.668" y="319.55" transform="matrix(-0.8678 -0.4969 0.4969 -0.8678 110.6605 676.0446)" style="fill:#8B8D96;" width="75.186" height="7.502"/>
			
				<rect x="142.148" y="288.544" transform="matrix(0.4969 -0.8678 0.8678 0.4969 -210.273 287.8699)" style="opacity:0.1;fill:#272525;" width="2.001" height="73.499"/>
			
				<rect x="202.213" y="356.824" transform="matrix(0.4969 -0.8678 0.8678 0.4969 -211.327 358.5576)" style="opacity:0.1;fill:#272525;" width="2.751" height="9.444"/>
			<polygon style="fill:#E1E1E5;" points="114.717,311.455 109.707,308.586 119.486,302.894 124.435,305.799 			"/>
			<polygon style="fill:#E1E1E5;" points="124.607,317.118 119.596,314.249 129.375,308.556 134.324,311.462 			"/>
			<polygon style="fill:#E1E1E5;" points="134.496,322.781 129.485,319.912 139.264,314.219 144.213,317.125 			"/>
			<polygon style="fill:#E1E1E5;" points="144.385,328.444 139.374,325.574 149.153,319.882 154.102,322.788 			"/>
			<polygon style="fill:#E1E1E5;" points="154.274,334.107 149.264,331.237 159.042,325.545 163.991,328.451 			"/>
			<polygon style="fill:#E1E1E5;" points="164.163,339.77 159.153,336.9 168.932,331.208 173.88,334.113 			"/>
			<polygon style="fill:#E1E1E5;" points="174.053,345.432 169.042,342.563 178.821,336.871 183.77,339.776 			"/>
			
				<rect x="182.157" y="337.957" transform="matrix(0.8678 0.4969 -0.4969 0.8678 199.5739 -49.3626)" style="fill:#E1E1E5;" width="20.797" height="24.854"/>
			<polygon style="fill:#8B8D96;" points="180.731,333.616 177.119,339.923 175.721,342.365 172.109,348.673 177.357,356 
				182.833,346.437 184.231,343.996 189.707,334.433 			"/>
			<path style="fill:#145566;" d="M280.287,516.911l6.378-36.102c1.143-6.47-1.897-12.961-7.598-16.226l-7.685-4.4l-9.549,54.226
				l10.706,6.131C275.681,522.338,279.657,520.477,280.287,516.911z"/>
			
				<rect x="241.82" y="360.137" transform="matrix(0.8678 0.4969 -0.4969 0.8678 218.9028 -71.2339)" style="fill:#145566;" width="3.001" height="31.256"/>
			
				<rect x="248.07" y="363.716" transform="matrix(0.8678 0.4969 -0.4969 0.8678 221.4871 -73.8654)" style="fill:#145566;" width="3.001" height="31.256"/>
			<path style="fill:#B5D6CA;" d="M336.573,421.3l-33.211-19.017c-0.897-0.514-1.208-1.658-0.694-2.555l2.514-4.39
				c0.514-0.897,1.658-1.208,2.555-0.694l33.21,19.017c0.897,0.514,1.208,1.658,0.694,2.555l-2.514,4.39
				C338.614,421.503,337.47,421.813,336.573,421.3z"/>
		</g>
		<g>
			<path style="fill:#EACDB0;" d="M345.759,437.601c0.273,1.001,0.148,2.355-0.834,2.69c-0.589,0.201-1.219-0.071-1.819-0.235
				c-2.269-0.619-4.893,0.527-5.982,2.612c-1.281,2.455-0.349,5.635,1.61,7.593c1.959,1.958,4.721,2.892,7.446,3.386
				c1.711,0.31,3.644,0.42,5.016-0.649c0.705-0.549,1.169-1.346,1.58-2.139c2.114-4.073,4.058-9.461,1.066-13.614
				C351.49,433.979,343.911,430.831,345.759,437.601z"/>
			<path style="fill:#B5D6CA;" d="M365.599,438.543c-0.307-0.465-0.668-0.905-1.089-1.314c-3.396-3.306-7.881-6.594-12.9-5.525
				c0.645,9.177-1.619,18.537-6.387,26.405c-0.377,0.623-0.785,1.348-0.551,2.037c0.441,1.295,4.369,2.547,5.569,2.71
				c5.291,0.72,11.01-1.429,13.673-5.137c1.562-2.175,2.092-4.709,2.577-7.184C367.241,446.711,367.857,441.957,365.599,438.543z"/>
		</g>
	</g>
	<g>
		<path style="fill:#FFD559;" d="M548.903,571.494c0.086-2.217,1.87-3.965,3.966-3.884l19.764,0.762
			c2.096,0.081,3.741,1.961,3.655,4.178l-0.109,2.817l83.87,3.232l35.199-34.169c0.101-0.098,0.223-0.136,0.341-0.122l0.928-24.072
			c0.298-7.749-4.556-14.285-10.789-14.525l-67.989-2.62l-0.362,9.396c-0.137,3.566-2.575,6.367-5.443,6.257
			c-2.868-0.111-5.082-3.092-4.945-6.657l0.362-9.396l-56.658-2.184l-0.387,10.034c-0.082,3.568-2.476,6.425-5.346,6.384
			c-0.034,0-0.068-0.001-0.102-0.003c-2.822-0.109-5.028-3.008-4.947-6.533l0.395-10.282l-38.717-1.492
			c-3.258-0.125-6.271,1.487-8.454,4.166l-23.041,21.922l-4.26,4.045c-1.526,2.304-2.489,5.207-2.611,8.365l-1.305,33.851
			l86.875,3.348L548.903,571.494z"/>
		<path style="fill:#EBB044;" d="M660.177,579.779l-84.042-3.239l-0.169,4.383c-0.085,2.217-1.87,3.965-3.966,3.884l-19.764-0.762
			c-2.096-0.081-3.741-1.961-3.655-4.178l0.169-4.383l-86.875-3.348l-2.768,71.813c-0.299,7.749,4.556,14.285,10.788,14.525
			l184.138,7.097c2.361,0.091,4.596-0.74,6.478-2.219l1.56-1.468l24.765-23.243c0.585-0.448,1.115-0.968,1.629-1.525l0.069-0.08
			c2.224-2.489,3.712-6.006,3.864-9.963l3.139-81.448l-35.052,34.028C660.398,579.739,660.288,579.784,660.177,579.779z"/>
		<path style="fill:#D6952B;" d="M695.91,544.525c-0.081-0.13-0.199-0.202-0.321-0.217l-0.051,1.318l0.284-0.276
			C696.029,545.148,696.069,544.779,695.91,544.525z"/>
		<path style="fill:#D6952B;" d="M461.425,571.531c-0.012,0.325,0.189,0.595,0.45,0.605l0.045-1.174
			C461.659,570.952,461.438,571.207,461.425,571.531z"/>
		<path style="fill:#D6952B;" d="M695.248,544.429l-35.199,34.169l-83.87-3.232l-0.045,1.174l84.042,3.239
			c0.112,0.004,0.221-0.041,0.31-0.127l35.052-34.028l0.051-1.318C695.471,544.293,695.349,544.331,695.248,544.429z"/>
		
			<rect x="504.747" y="529.754" transform="matrix(0.0385 -0.9993 0.9993 0.0385 -86.9255 1056.1067)" style="fill:#D6952B;" width="1.175" height="86.94"/>
		<path style="fill:#145566;" d="M551.124,489.352c0.162-4.208,3.048-7.525,6.432-7.395l44.382,1.71
			c3.384,0.131,6.006,3.66,5.844,7.868l-0.43,11.153l10.387,0.4l0.43-11.153c0.437-11.329-6.622-20.832-15.733-21.183l-44.382-1.711
			c-9.112-0.351-16.88,8.58-17.317,19.909l-0.429,11.153l10.386,0.4L551.124,489.352z"/>
		<path style="fill:#145566;" d="M606.989,512.085c-0.137,3.566,2.077,6.547,4.945,6.657c2.868,0.11,5.305-2.691,5.443-6.257
			l0.362-9.396l-10.387-0.4L606.989,512.085z"/>
		<path style="fill:#145566;" d="M544.859,516.921c0.034,0.001,0.067,0.003,0.102,0.003c2.87,0.042,5.264-2.816,5.346-6.384
			l0.387-10.034l-10.386-0.4l-0.395,10.282C539.831,513.913,542.037,516.812,544.859,516.921z"/>
		<path style="fill:#145566;" d="M548.581,579.868c-0.086,2.217,1.559,4.097,3.655,4.178L572,584.808
			c2.096,0.081,3.88-1.667,3.966-3.884l0.169-4.383l-27.385-1.056L548.581,579.868z"/>
		<path style="fill:#145566;" d="M572.633,568.371l-19.764-0.762c-2.096-0.081-3.88,1.667-3.966,3.884l-0.109,2.817l27.385,1.055
			l0.109-2.817C576.374,570.332,574.729,568.452,572.633,568.371z"/>
		
			<rect x="561.877" y="561.723" transform="matrix(0.0385 -0.9993 0.9993 0.0385 -34.1971 1115.3102)" style="fill:#145566;" width="1.175" height="27.405"/>
	</g>
	<g>
		<g>
			<path style="fill:#145566;" d="M746.204,243.426l-0.317,0.385c-4.981,6.036-13.911,6.892-19.948,1.911l-53.458-44.11
				l18.354-22.243l53.457,44.11C750.329,228.459,751.185,237.39,746.204,243.426z"/>
		</g>
		<g>
			<g>
				<path style="fill:#C8D6A1;" d="M660.539,93.628l-77.991,94.519c-6.104,7.398-17.049,8.446-24.446,2.342l-6.314-5.21
					c-7.397-6.104-8.446-17.049-2.342-24.447l77.991-94.52c6.104-7.397,17.049-8.446,24.447-2.342l6.314,5.21
					C665.594,75.285,666.643,86.23,660.539,93.628z"/>
			</g>
			<g style="opacity:0.1;">
				<path style="fill:#272525;" d="M583.841,186.579l75.404-91.384c6.818-8.264,5.878-20.299-2.101-26.883L557.049,189.621
					C565.027,196.205,577.023,194.843,583.841,186.579z"/>
			</g>
		</g>
		<g>
			<path style="fill:#8B8D96;" d="M683.686,188.032l-4.057,4.917l-9.953-8.213c-1.453-1.199-3.474-1.498-5.272-0.78l-79.651,35.907
				c-4.034,1.618-8.424,0.969-11.584-1.639l-17.217-14.206c-4.847-3.999-5.419-11.336-1.277-16.356l4.748,3.918
				c-1.905,2.308-1.642,5.682,0.587,7.521l17.217,14.206c1.453,1.199,3.471,1.497,5.269,0.78l79.652-35.909
				c4.037-1.615,8.427-0.966,11.586,1.64L683.686,188.032z"/>
		</g>
		<g style="opacity:0.1;">
			<path style="fill:#1A3151;" d="M734.213,248.95c4.345,0.186,8.784-1.637,11.833-5.332c5.068-6.142,4.369-15.089-1.561-19.982
				l-42.573-35.129C701.911,188.508,748.133,229.816,734.213,248.95z"/>
		</g>
		<g>
			<path style="fill:#B5D6CA;" d="M733.243,239.161c-1.937-1.598-2.165-4.521-0.51-6.527c1.655-2.006,4.568-2.337,6.505-0.739
				c1.937,1.598,2.165,4.521,0.51,6.527C738.093,240.429,735.18,240.759,733.243,239.161z"/>
		</g>
	</g>
	<g>
		<g>
			<path style="fill:#EACDB0;" d="M595.628,370.43c3.342,4.467,3.48,10.542,0.345,15.174c-5.728,8.464-11.456,16.927-17.184,25.391
				c-3.217,4.753-8.434,10.077-9.842,15.513c-2.489,9.609-1.745,21.384-2.081,31.266c-0.17,5.018-1.462,11.855,0.006,16.68
				c0.275,0.904,5.238,8.2,5.055,8.38c-0.014,0.017-1.45,1.676-1.45,1.676l-1.658-1.454l-1.554,0.111l3.49,5.517l-6.526,3.612
				l-7.565-4.178c0.258-5.421,1.925-10.89,0.882-16.287c-0.441-2.282-1.253-4.475-1.888-6.711c-1.09-3.841-1.654-7.8-2.379-11.719
				c-0.701-3.792-2.148-7.458-2.786-11.198c-1.424-8.347-2.79-16.704-4.184-25.056l27.194-45.532
				C578.351,363.494,589.973,362.871,595.628,370.43z"/>
		</g>
		<path style="fill:#B5D6CA;" d="M617.805,381.611c-9.352,3.967-17.743,10.115-24.45,17.739c-0.187,0.294-0.371,0.586-0.548,0.876
			c-4.397,7.207-6.166,13.741-15.043,11.574c-11.161-2.725-18.145-11.244-30.92-10.152c4.647-13.798,10.537-27.175,17.561-39.928
			c5.072-9.209,11.478-24.071,21.074-29.53c21.578-12.276,30.563,8.858,34.149,25.222c1.2,5.476,2.4,10.951,3.6,16.427
			c0.21,0.957,0.42,1.945,0.246,2.909C623.01,379.31,620.201,380.595,617.805,381.611z"/>
	</g>
</g>
</svg>
